<?xml version="1.0" encoding="UTF-8"?><svg id="_イヤー_2" xmlns="http://www.w3.org/2000/svg" viewBox="0 0 558.93 340.81"><defs><style>.cls-1,.cls-2,.cls-3,.cls-4{fill:#fff;}.cls-1,.cls-5,.cls-3,.cls-6,.cls-7,.cls-8,.cls-9,.cls-10,.cls-11{stroke-miterlimit:10;}.cls-1,.cls-5,.cls-7,.cls-10,.cls-4,.cls-11{stroke-width:.5px;}.cls-1,.cls-3,.cls-6,.cls-7,.cls-10,.cls-4{stroke:#333;}.cls-5,.cls-6,.cls-8,.cls-9,.cls-11{fill:none;}.cls-5,.cls-11{stroke:#4e4d4d;}.cls-7{fill:#50a2d4;}.cls-8{stroke:#f1ab3f;}.cls-9{stroke:#e55927;}.cls-10{fill:#ccc;}.cls-12{fill:#f7b469;}.cls-4{stroke-linejoin:round;}.cls-11{stroke-dasharray:0 0 5.85 5.85;}</style></defs><g id="_イヤー_1-2"><rect class="cls-2" width="558.93" height="340.81"/><line class="cls-3" x1="139.1" y1="193.32" x2="128.3" y2="193.32"/><line class="cls-1" x1="230.37" y1="193.32" x2="219.57" y2="193.32"/><rect class="cls-1" x="78.07" y="187.38" width="176.6" height="49.15"/><path class="cls-1" d="M80.07,187.38l174.32,.46,.67-55.01c-3.34,2.73-6.51,4.2-8.67,5.01-2.91,1.09-5.92,2.22-9.8,1.66-3.14-.45-5.47-1.81-6.81-2.75l-2.57-1.91c-4.65-3.46-11-3.55-15.75-.22l-4.37,3.05c-4.65,3.25-10.85,3.24-15.48-.03l-4.52-3.19c-4.6-3.24-10.73-3.29-15.37-.11l-4.08,2.79c-5.12,3.5-11.97,3.05-16.59-1.09-4.58-4.11-11.37-4.59-16.49-1.16l-4.49,3.01c-4.67,3.13-10.79,3.03-15.35-.25l-4.67-3.35c-4.42-3.17-10.31-3.37-14.94-.51-10.87,7.87-21.73,15.75-32.6,23.62"/><polyline class="cls-1" points="81.31 186.3 63.49 200.88 61.06 157.4"/><rect class="cls-10" x="66.73" y="190.08" width="180.38" height="55.09"/><path class="cls-1" d="M237.39,146.84c-1.9-.29-5.87,.5-8,2-.95,.67-1.08,1.14-2,2-2.93,2.74-6.97,2.95-8,3-4.77,.25-8.17-2.05-9.16-2.77l-2.57-1.91c-4.65-3.46-11-3.55-15.75-.22l-4.37,3.05c-4.65,3.25-10.84,3.24-15.48-.03l-4.52-3.19c-4.6-3.24-10.73-3.29-15.37-.11l-4.08,2.79c-5.12,3.5-11.97,3.05-16.59-1.09-4.58-4.11-11.37-4.59-16.49-1.16l-4.49,3.01c-4.67,3.13-10.79,3.03-15.35-.25l-4.67-3.35c-4.42-3.17-10.31-3.37-14.94-.51l-15.04,9.31v44.29H237.12l.27-54.85Z"/><polygon class="cls-1" points="236.85 201.96 254.67 187.38 255.05 132.83 237.39 146.84 236.85 201.96"/><polygon class="cls-1" points="247.11 245.17 254.67 236.52 254.67 187.38 247.11 193.56 247.11 245.17"/><g><circle class="cls-1" cx="157.26" cy="225.93" r="2.43"/><path class="cls-1" d="M159.46,207.6l.56,10.33c.02,.43-.02,.87-.14,1.25l-1.63,5.49c-.44,1.47-1.58,1.49-2.03,.02l-1.58-5.15c-.18-.6-.2-1.32-.05-1.95l2.65-10.68c.49-1.99,2.09-1.5,2.21,.68Z"/><path class="cls-1" d="M155.06,243.84l-.56-10.33c-.02-.43,.02-.87,.14-1.25l1.63-5.49c.44-1.47,1.58-1.49,2.03-.02l1.58,5.15c.18,.6,.2,1.32,.05,1.95l-2.65,10.68c-.49,1.99-2.09,1.5-2.21-.68Z"/></g><g><line class="cls-4" x1="204.99" y1="256.51" x2="215.79" y2="256.51"/><line class="cls-4" x1="113.72" y1="256.51" x2="124.52" y2="256.51"/><rect class="cls-4" x="61.33" y="253.27" width="174.98" height="11.34"/><polygon class="cls-4" points="104.53 240.31 253.05 240.31 236.31 253.27 61.33 253.27 104.53 240.31"/><polygon class="cls-4" points="253.05 251.11 236.31 264.61 236.31 253.27 253.05 240.31 253.05 251.11"/></g><path class="cls-8" d="M42.03,250.3c33.82-1.15,34.65,9.36,68.24,5.23,20.71-2.55,18.68-12.89,38.81-18.37"/><line class="cls-3" x1="391.31" y1="194.94" x2="380.51" y2="194.94"/><line class="cls-1" x1="482.58" y1="178.2" x2="471.78" y2="178.2"/><rect class="cls-1" x="330.28" y="172.26" width="176.6" height="49.15"/><rect class="cls-10" x="318.94" y="174.96" width="180.38" height="55.09"/><polygon class="cls-1" points="499.33 230.04 506.89 221.4 506.89 172.26 499.33 178.44 499.33 230.04"/><g><line class="cls-1" x1="458.82" y1="257.05" x2="469.62" y2="257.05"/><line class="cls-1" x1="367.55" y1="257.05" x2="378.35" y2="257.05"/><rect class="cls-1" x="315.16" y="253.81" width="174.98" height="11.34"/><polygon class="cls-1" points="358.37 240.85 506.89 240.85 490.15 253.81 315.16 253.81 358.37 240.85"/><polygon class="cls-1" points="506.89 251.65 490.15 265.15 490.15 253.81 506.89 240.85 506.89 251.65"/></g><circle class="cls-12" cx="160.11" cy="132.64" r="11.48"/><path class="cls-9" d="M42.03,248.3c33.82-1.15,34.65,9.36,68.24,5.23,20.71-2.55,18.68-12.89,38.81-18.37"/><path class="cls-6" d="M42.03,252.3c33.82-1.15,34.65,9.36,68.24,5.23,20.71-2.55,18.68-12.89,38.81-18.37"/><path class="cls-8" d="M295.03,250.3c33.82-1.15,34.65,9.36,68.24,5.23,20.71-2.55,18.68-12.89,38.81-18.37"/><path class="cls-9" d="M295.03,248.3c33.82-1.15,34.65,9.36,68.24,5.23,20.71-2.55,18.68-12.89,38.81-18.37"/><path class="cls-6" d="M295.03,252.3c33.82-1.15,34.65,9.36,68.24,5.23,20.71-2.55,18.68-12.89,38.81-18.37"/><g><circle class="cls-1" cx="410.89" cy="226.26" r="2.43"/><path class="cls-1" d="M429.21,228.46l-10.33,.56c-.43,.02-.87-.02-1.25-.14l-5.49-1.63c-1.47-.44-1.49-1.58-.02-2.03l5.15-1.58c.6-.18,1.32-.2,1.95-.05l10.68,2.65c1.99,.49,1.5,2.09-.68,2.21Z"/><path class="cls-1" d="M392.97,224.07l10.33-.56c.43-.02,.87,.02,1.25,.14l5.49,1.63c1.47,.44,1.49,1.58,.02,2.03l-5.15,1.58c-.6,.18-1.32,.2-1.95,.05l-10.68-2.65c-1.99-.49-1.5-2.09,.68-2.21Z"/></g><rect class="cls-7" x="400.22" y="215.73" width="19.98" height="24.84"/><rect class="cls-7" x="146.39" y="215.19" width="19.98" height="24.84"/><g><line class="cls-5" x1="160.11" y1="83.98" x2="160.11" y2="86.98"/><line class="cls-11" x1="160.11" y1="92.83" x2="160.11" y2="277.07"/><line class="cls-5" x1="160.11" y1="280" x2="160.11" y2="283"/></g><g><path class="cls-1" d="M332.36,172.38l174.32,.46,.67-55.01c-3.34,2.73-6.51,4.2-8.67,5.01-2.91,1.09-5.92,2.22-9.8,1.66-3.14-.45-5.47-1.81-6.81-2.75l-2.57-1.91c-4.65-3.46-11-3.55-15.75-.22l-4.37,3.05c-4.65,3.25-10.85,3.24-15.48-.03l-4.52-3.19c-4.6-3.24-10.73-3.29-15.37-.11l-4.08,2.79c-5.12,3.5-11.97,3.05-16.59-1.09-4.58-4.11-11.37-4.59-16.49-1.16l-4.49,3.01c-4.67,3.13-10.79,3.03-15.35-.25l-4.67-3.35c-4.42-3.17-10.31-3.37-14.94-.51-10.87,7.87-21.73,15.75-32.6,23.62"/><path class="cls-1" d="M489.68,131.84c-1.9-.29-5.87,.5-8,2-.95,.67-1.08,1.14-2,2-2.93,2.74-6.97,2.95-8,3-4.77,.25-8.17-2.05-9.16-2.77l-2.57-1.91c-4.65-3.46-11-3.55-15.75-.22l-4.37,3.05c-4.65,3.25-10.84,3.24-15.48-.03l-4.52-3.19c-4.6-3.24-10.73-3.29-15.37-.11l-4.08,2.79c-5.12,3.5-11.97,3.05-16.59-1.09-4.58-4.11-11.37-4.59-16.49-1.16l-4.49,3.01c-4.67,3.13-10.79,3.03-15.35-.25l-4.67-3.35c-4.42-3.17-10.31-3.37-14.94-.51l-15.04,9.31v44.29h176.6l.27-54.85Z"/><polygon class="cls-1" points="489.14 186.96 506.97 172.38 507.34 117.83 489.68 131.84 489.14 186.96"/></g><circle class="cls-12" cx="432.31" cy="124" r="11.48"/><g><line class="cls-5" x1="432.31" y1="75.34" x2="432.31" y2="78.34"/><line class="cls-11" x1="432.31" y1="84.19" x2="432.31" y2="268.43"/><line class="cls-5" x1="432.31" y1="271.36" x2="432.31" y2="274.36"/></g></g></svg>