<?xml version="1.0" encoding="UTF-8"?><svg id="_イヤー_2" xmlns="http://www.w3.org/2000/svg" viewBox="0 0 558.93 340.81"><defs><style>.cls-1{fill:#fff;}.cls-2{fill:#666767;}.cls-3{stroke:#7f8080;}.cls-3,.cls-4{stroke-width:.5px;}.cls-3,.cls-4,.cls-5{fill:none;stroke-miterlimit:10;}.cls-4{stroke:#333;}.cls-5{stroke:#666767;stroke-width:.75px;}.cls-6{opacity:.2;}.cls-6,.cls-7{fill:#7f8080;}.cls-8{fill:#f7b469;}.cls-7{opacity:.1;}</style></defs><g id="_イヤー_1-2"><rect class="cls-1" width="558.93" height="340.81"/><polyline class="cls-3" points="348.67 98.78 456.17 98.78 493.17 157.78"/><polyline class="cls-3" points="352.17 147.28 352.14 139.78 470.17 139.78 481.17 157.78"/><polygon class="cls-4" points="345.42 71.28 345.42 143.28 317.67 143.28 317.67 214.28 345.42 214.28 345.42 273.28 405.67 273.28 405.67 71.28 345.42 71.28"/><rect class="cls-6" x="276.67" y="157.28" width="31" height="30"/><rect class="cls-4" x="451.67" y="157.28" width="66" height="45"/><rect class="cls-8" x="307.67" y="167.28" width="38" height="9"/><rect class="cls-8" x="320.67" y="146.28" width="38" height="65"/><rect class="cls-8" x="343.67" y="91.28" width="7" height="14"/><g><path class="cls-2" d="M54.4,278.19c0-.25-.02-.59-.07-.85h1.09c-.03,.25-.06,.55-.06,.85v1.02c.93,.28,2.28,.78,2.93,1.09l-.39,.97c-.73-.38-1.78-.79-2.54-1.04v1.98c0,.2,.04,.69,.07,.97h-1.1c.04-.27,.07-.7,.07-.97v-4.03Zm3.43,.44l-.61,.27c-.2-.44-.36-.72-.62-1.09l.59-.25c.2,.29,.48,.74,.64,1.06Zm.94-.41l-.59,.29c-.22-.44-.39-.7-.65-1.05l.58-.27c.2,.28,.5,.72,.66,1.04Z"/><path class="cls-2" d="M65.83,278.41c-.33,.55-.99,1.43-1.68,1.92l-.73-.58c.56-.34,1.11-.96,1.29-1.3h-3.65c-.29,0-.53,.02-.85,.05v-.97c.27,.04,.56,.07,.85,.07h3.78c.2,0,.58-.02,.71-.06l.55,.52c-.08,.09-.21,.26-.27,.36Zm-4.52,4.77l-.82-.67c.22-.08,.48-.2,.74-.38,.89-.62,1.06-1.36,1.06-2.51,0-.22-.01-.41-.05-.63h1.02c0,1.74-.04,3.17-1.94,4.19Z"/><path class="cls-2" d="M71.95,278.44c-.29,.81-.75,1.86-1.32,2.57-.59,.74-1.58,1.6-2.65,2.03l-.8-.82c1.09-.37,2.04-1.06,2.66-1.82,.67-.81,1.13-2.02,1.32-3.03l1.09,.28c-.13,.25-.22,.56-.31,.78Z"/><path class="cls-2" d="M79.27,277.8l-.26,.1,.45,.29c-.07,.13-.12,.34-.15,.48-.17,.69-.47,1.77-1.06,2.55-.63,.84-1.56,1.53-2.82,1.94l-.76-.84c1.39-.32,2.18-.93,2.75-1.65,.46-.58,.73-1.37,.82-1.98h-3.26c-.32,0-.65,.01-.83,.03v-.99c.2,.03,.6,.06,.83,.06h3.24c.08,0,.2,0,.33-.01-.12-.23-.26-.48-.39-.68l.57-.24c.18,.27,.41,.67,.54,.92Zm1-.17l-.58,.25c-.15-.29-.37-.69-.56-.95l.58-.23c.18,.25,.43,.68,.56,.92Z"/><path class="cls-2" d="M83.88,278.43c-.15,.39-.29,.76-.41,1.04h.81v.76h-3.6v-.76h.8c-.02-.28-.13-.71-.25-1.04l.68-.14c.15,.32,.26,.74,.29,1.02l-.66,.15h1.83l-.57-.15c.11-.29,.23-.74,.29-1.06l.79,.17Zm.32-.19h-3.38v-.72h1.28v-.62h.81v.62h1.29v.72Zm-3.12,2.44h2.89v2.69h-.81v-.32h-1.31v.35h-.77v-2.72Zm.77,.72v.92h1.31v-.92h-1.31Zm5.36-3.8c-.25,.67-.55,1.48-.83,2.07,.59,.63,.7,1.18,.7,1.64,0,.51-.11,.85-.38,1.04-.13,.09-.3,.15-.48,.17-.16,.02-.36,.02-.56,.01,0-.22-.07-.58-.2-.81,.15,0,.29,.01,.39,0,.1,0,.19-.02,.26-.06,.13-.08,.17-.24,.17-.48,0-.38-.15-.88-.71-1.43,.2-.5,.43-1.21,.6-1.74h-.85v5.36h-.81v-6.14h1.97l.13-.03,.61,.38Z"/><path class="cls-2" d="M92.23,276.93c.44,.89,1.32,1.91,2.08,2.49-.22,.17-.55,.51-.71,.75-.15-.13-.29-.29-.45-.45v.05c-.08,2.12-.16,2.94-.41,3.24-.18,.22-.36,.29-.64,.33-.24,.03-.64,.03-1.06,.02-.01-.25-.13-.6-.27-.84,.39,.03,.75,.04,.92,.04,.13,0,.2-.01,.28-.1,.14-.15,.22-.77,.28-2.23h-1.38c-.17,1.34-.63,2.54-2.44,3.22-.11-.24-.35-.58-.55-.77,1.58-.51,1.95-1.43,2.09-2.45h-1.18v-.49c-.18,.19-.37,.36-.56,.5-.15-.19-.51-.52-.71-.67,.88-.59,1.65-1.55,2.07-2.62l.9,.26c-.34,.81-.83,1.58-1.39,2.21h3.78c-.55-.64-1.08-1.42-1.46-2.15l.82-.33Z"/><path class="cls-2" d="M97.65,277.87c.67-.04,1.37-.1,1.98-.2v.81c-.67,.1-1.53,.15-2.29,.18-.12,.26-.26,.51-.4,.71,.18-.08,.56-.14,.79-.14,.43,0,.78,.18,.93,.54,.36-.17,.66-.29,.95-.41,.27-.12,.52-.23,.78-.36l.35,.81c-.22,.06-.6,.2-.83,.29-.31,.13-.71,.28-1.14,.48,0,.39,.02,.91,.03,1.23h-.84c.02-.21,.03-.55,.04-.85-.53,.3-.81,.57-.81,.92,0,.38,.33,.49,1.02,.49,.6,0,1.37-.08,1.99-.2l-.03,.9c-.46,.06-1.32,.12-1.98,.12-1.1,0-1.91-.27-1.91-1.17s.84-1.46,1.64-1.87c-.1-.17-.29-.24-.49-.24-.39,0-.83,.22-1.09,.48-.21,.21-.41,.46-.65,.77l-.75-.56c.74-.68,1.23-1.3,1.55-1.93h-.09c-.29,0-.8-.01-1.18-.04v-.82c.36,.06,.88,.08,1.23,.08h.34c.08-.28,.13-.55,.14-.81l.92,.08c-.04,.17-.08,.41-.17,.7Z"/><path class="cls-2" d="M108.11,282.31v.82h-6.37v-.82h.86v-3.11h.88v3.11h1.21v-4.19h-2.7v-.81h5.93v.81h-2.34v1.54h1.97v.81h-1.97v1.84h2.53Z"/><path class="cls-2" d="M112.29,278.03c-.06,.22-.13,.43-.19,.63h2.66v4.73h-.85v-.36h-4.04v.36h-.81v-4.73h2.16c.04-.2,.08-.42,.11-.63h-2.56v-.78h6.3v.78h-2.79Zm-2.42,4.24h.72v-2.84h-.72v2.84Zm2.54-2.84h-1.07v.48h1.07v-.48Zm0,1.13h-1.07v.53h1.07v-.53Zm-1.07,1.7h1.07v-.52h-1.07v.52Zm2.58-2.84h-.76v2.84h.76v-2.84Z"/><path class="cls-2" d="M118.53,277.83c-.05,.21-.1,.47-.15,.72,.23-.01,.44-.03,.59-.03,.74,0,1.27,.33,1.27,1.34,0,.83-.1,1.96-.4,2.57-.23,.49-.62,.64-1.15,.64-.27,0-.6-.05-.84-.1l-.15-.92c.27,.08,.67,.15,.86,.15,.23,0,.41-.07,.53-.3,.19-.4,.28-1.25,.28-1.94,0-.56-.24-.64-.68-.64-.11,0-.29,.01-.48,.03-.27,1.06-.78,2.72-1.43,3.75l-.91-.36c.68-.92,1.16-2.33,1.41-3.29-.25,.03-.47,.06-.6,.07-.2,.04-.57,.08-.78,.12l-.08-.95c.25,.02,.49,0,.75,0,.22,0,.55-.03,.9-.06,.1-.53,.15-1.04,.15-1.48l1.04,.1c-.04,.18-.09,.41-.13,.58Zm3.77,2.68l-.89,.41c-.18-.78-.68-2.04-1.18-2.66l.83-.36c.43,.6,1.02,1.94,1.23,2.61Z"/><path class="cls-2" d="M124.53,280.19c.64-.46,1.33-.67,2.07-.67,1.23,0,1.94,.76,1.94,1.6,0,1.28-1.01,2.26-3.92,2.01l-.27-.92c2.1,.29,3.21-.22,3.21-1.11,0-.46-.43-.79-1.04-.79-.79,0-1.5,.29-1.95,.83-.13,.15-.2,.27-.26,.41l-.8-.2c.14-.69,.3-2.06,.35-2.93l.94,.13c-.09,.39-.22,1.24-.27,1.64Zm3.03-2.5l-.21,.85c-.71-.09-2.27-.42-2.82-.56l.22-.84c.67,.21,2.19,.48,2.8,.55Z"/><path class="cls-2" d="M135.12,282.54c.24,0,.28-.12,.32-.93,.17,.13,.55,.27,.76,.33-.09,1.11-.31,1.39-1,1.39h-.92c-.83,0-1.03-.25-1.03-1.04v-1.12h-.85c-.15,1.11-.56,1.85-2.29,2.24-.08-.22-.3-.57-.46-.74,1.44-.27,1.74-.74,1.86-1.5h-.85v-4.11h4.58v4.11h-1.14v1.11c0,.22,.04,.25,.31,.25h.73Zm-3.67-4.31h2.93v-.43h-2.93v.43Zm0,1.11h2.93v-.43h-2.93v.43Zm0,1.11h2.93v-.43h-2.93v.43Z"/><path class="cls-2" d="M139.59,277.85c-.01,.08-.04,.17-.06,.27,.39-.06,.78-.13,1.17-.22v.88c-.42,.1-.9,.17-1.37,.23-.06,.3-.13,.61-.21,.9-.25,.98-.72,2.41-1.11,3.24l-.97-.33c.42-.7,.95-2.17,1.21-3.15,.05-.19,.1-.38,.15-.59-.16,0-.31,.01-.46,.01-.34,0-.6-.01-.85-.03l-.02-.88c.36,.04,.59,.06,.88,.06,.2,0,.41,0,.63-.02,.03-.15,.05-.29,.06-.4,.03-.26,.04-.55,.02-.71l1.07,.08c-.06,.19-.12,.5-.15,.66Zm.84,3.8c0,.31,.21,.54,.96,.54,.47,0,.95-.06,1.46-.15l-.04,.9c-.39,.05-.87,.1-1.43,.1-1.18,0-1.81-.41-1.81-1.11,0-.32,.07-.66,.13-.94l.83,.08c-.06,.2-.1,.43-.1,.58Zm1.06-2.42c.4,0,.82,.02,1.23,.06l-.02,.84c-.35-.04-.78-.08-1.2-.08-.48,0-.91,.02-1.35,.07v-.82c.39-.04,.9-.07,1.34-.07Z"/><path class="cls-2" d="M149.9,277.15v6.22h-.87v-.29h-4.25v.29h-.83v-6.22h5.95Zm-.87,5.13v-4.34h-4.25v4.34h4.25Zm-.25-3.79c-.3,.82-.71,1.53-1.22,2.12,.46,.26,.88,.53,1.16,.76l-.5,.65c-.29-.26-.71-.55-1.21-.85-.47,.43-.99,.78-1.58,1.06-.1-.17-.36-.52-.53-.67,.5-.21,.97-.48,1.37-.8-.36-.2-.74-.37-1.08-.52l.43-.53-.08,.04c-.08-.32-.32-.82-.55-1.2l.62-.27c.25,.36,.49,.85,.59,1.17l-.53,.24c.36,.15,.77,.34,1.17,.54,.5-.54,.88-1.19,1.14-1.95l.79,.2Zm-2.07,1.1c-.06-.34-.24-.85-.44-1.26l.65-.22c.22,.38,.42,.89,.48,1.22l-.69,.26Z"/></g><g><path class="cls-2" d="M352.06,282.06h-3.67v-2.45h1.41v-.37h-1.69v-.18h-.64v.33c.19,.25,.68,.99,.78,1.18l-.42,.64c-.08-.21-.22-.51-.36-.8v2.98h-.77v-2.58c-.18,.52-.4,1.01-.64,1.34-.08-.22-.25-.55-.38-.74,.41-.55,.78-1.52,.97-2.35h-.8v-.77h.85v-1.44h.77v1.44h.71v.27h.87v-.47h-.74v-.66h.74v-.57h.78v.57h.76v-.57h.78v.57h.78v.66h-.78v.47h.95v.69h-1.74v.37h1.5v2.45Zm-2.1,.46c-.39,.33-1.02,.69-1.51,.89-.13-.16-.38-.4-.55-.54,.48-.19,1.07-.54,1.38-.81l.68,.46Zm-.85-1.96h.69v-.38h-.69v.38Zm.69,.92v-.39h-.69v.39h.69Zm.03-2.93h.76v-.47h-.76v.47Zm1.25,3.55c.41,.22,1.01,.57,1.31,.81l-.63,.5c-.27-.24-.84-.61-1.27-.86l.59-.44Zm.23-1.92h-.74v.38h.74v-.38Zm0,.91h-.74v.39h.74v-.39Z"/><path class="cls-2" d="M355.63,277.83c-.05,.21-.1,.47-.15,.72,.23-.01,.44-.03,.59-.03,.74,0,1.27,.33,1.27,1.34,0,.83-.1,1.96-.4,2.57-.23,.49-.62,.64-1.15,.64-.27,0-.6-.05-.84-.1l-.15-.92c.27,.08,.67,.15,.86,.15,.23,0,.41-.07,.53-.3,.19-.4,.28-1.25,.28-1.94,0-.56-.24-.64-.68-.64-.11,0-.29,.01-.48,.03-.27,1.06-.78,2.72-1.43,3.75l-.91-.36c.68-.92,1.16-2.33,1.41-3.29-.25,.03-.47,.06-.6,.07-.2,.04-.57,.08-.78,.12l-.08-.95c.25,.02,.49,0,.75,0,.22,0,.55-.03,.9-.06,.1-.53,.15-1.04,.15-1.48l1.04,.1c-.04,.18-.09,.41-.13,.58Zm3.77,2.68l-.89,.41c-.18-.78-.68-2.04-1.18-2.66l.83-.36c.43,.6,1.02,1.94,1.23,2.61Z"/><path class="cls-2" d="M361.64,280.19c.64-.46,1.33-.67,2.07-.67,1.23,0,1.94,.76,1.94,1.6,0,1.28-1.01,2.26-3.92,2.01l-.27-.92c2.1,.29,3.21-.22,3.21-1.11,0-.46-.43-.79-1.04-.79-.79,0-1.5,.29-1.95,.83-.13,.15-.2,.27-.26,.41l-.8-.2c.14-.69,.3-2.06,.35-2.93l.94,.13c-.09,.39-.22,1.24-.27,1.64Zm3.03-2.5l-.21,.85c-.71-.09-2.27-.42-2.82-.56l.22-.84c.67,.21,2.19,.48,2.8,.55Z"/><path class="cls-2" d="M372.23,282.54c.24,0,.28-.12,.32-.93,.17,.13,.55,.27,.76,.33-.09,1.11-.31,1.39-1,1.39h-.92c-.83,0-1.03-.25-1.03-1.04v-1.12h-.85c-.15,1.11-.56,1.85-2.29,2.24-.08-.22-.3-.57-.46-.74,1.44-.27,1.74-.74,1.86-1.5h-.85v-4.11h4.58v4.11h-1.14v1.11c0,.22,.04,.25,.31,.25h.73Zm-3.67-4.31h2.93v-.43h-2.93v.43Zm0,1.11h2.93v-.43h-2.93v.43Zm0,1.11h2.93v-.43h-2.93v.43Z"/><path class="cls-2" d="M376.69,277.85c-.01,.08-.04,.17-.06,.27,.39-.06,.78-.13,1.17-.22v.88c-.42,.1-.9,.17-1.37,.23-.06,.3-.13,.61-.21,.9-.25,.98-.72,2.41-1.11,3.24l-.97-.33c.42-.7,.95-2.17,1.21-3.15,.05-.19,.1-.38,.15-.59-.16,0-.31,.01-.46,.01-.34,0-.6-.01-.85-.03l-.02-.88c.36,.04,.59,.06,.88,.06,.2,0,.41,0,.63-.02,.03-.15,.05-.29,.06-.4,.03-.26,.04-.55,.02-.71l1.07,.08c-.06,.19-.12,.5-.15,.66Zm.84,3.8c0,.31,.21,.54,.96,.54,.47,0,.95-.06,1.46-.15l-.04,.9c-.39,.05-.87,.1-1.43,.1-1.18,0-1.81-.41-1.81-1.11,0-.32,.07-.66,.13-.94l.83,.08c-.06,.2-.1,.43-.1,.58Zm1.06-2.42c.4,0,.82,.02,1.23,.06l-.02,.84c-.35-.04-.78-.08-1.2-.08-.48,0-.91,.02-1.35,.07v-.82c.39-.04,.9-.07,1.34-.07Z"/><path class="cls-2" d="M387.01,277.15v6.22h-.87v-.29h-4.25v.29h-.83v-6.22h5.95Zm-.87,5.13v-4.34h-4.25v4.34h4.25Zm-.25-3.79c-.3,.82-.71,1.53-1.22,2.12,.46,.26,.88,.53,1.16,.76l-.5,.65c-.29-.26-.71-.55-1.21-.85-.47,.43-.99,.78-1.58,1.06-.1-.17-.36-.52-.53-.67,.5-.21,.97-.48,1.37-.8-.36-.2-.74-.37-1.08-.52l.43-.53-.08,.04c-.08-.32-.32-.82-.55-1.2l.62-.27c.25,.36,.49,.85,.59,1.17l-.53,.24c.36,.15,.77,.34,1.17,.54,.5-.54,.88-1.19,1.14-1.95l.79,.2Zm-2.07,1.1c-.06-.34-.24-.85-.44-1.26l.65-.22c.22,.38,.42,.89,.48,1.22l-.69,.26Z"/></g><rect class="cls-4" x="53.42" y="71.28" width="202" height="202"/><rect class="cls-6" x="63.67" y="143.28" width="71" height="71"/><rect class="cls-8" x="125.67" y="91.28" width="58" height="18"/><g><path class="cls-1" d="M140.65,98.7l.07,.73c-1,.25-2.09,.5-2.9,.69l-.15-.79c.11-.02,.23-.04,.36-.07v-2.34h.68v2.21l.31-.07v-2.63h-.94v-2.32h2.43v2.32h-.76v.82h.85v.73h-.85v.92l.9-.2Zm-1.85-2.99h.95v-.89h-.95v.89Zm5.5,4.35h-2.59v.32h-.82v-6.28h3.28v.78h-2.46v.87h2.23v2.64h-2.23v.88h2.59v.78Zm-2.59-3.54v1.1h1.41v-1.1h-1.41Z"/><path class="cls-1" d="M148.25,95.08h-3.49v-.66h1.33v-.57h.81v.57h1.35v.66Zm3.05,4.99h-2.06v.33h-.75v-3.62c-.04,.07-.09,.13-.13,.2-.09-.09-.25-.24-.41-.36v.62h-1.13l-.06,.34h1.35v2.12c0,.32-.06,.48-.28,.59-.2,.1-.5,.11-.9,.11-.03-.19-.13-.45-.21-.62,.25,.01,.51,0,.59,0,.08,0,.11-.02,.11-.09v-.26l-.43,.13c0-.07-.02-.15-.04-.25-.43,.04-.85,.07-1.23,.09l-.06-.54h.26c.05-.22,.08-.46,.13-.69h-.46v2.23h-.67v-2.82h1.21c.01-.12,.03-.23,.04-.34h-1.09v-1.98h.57v1.42h.43c-.11-.09-.29-.22-.4-.3,.17-.12,.33-.26,.47-.41-.14-.09-.29-.17-.42-.25l.32-.36c.13,.07,.27,.15,.41,.23,.08-.13,.16-.27,.22-.41l.53,.13c-.08,.2-.19,.38-.31,.56,.15,.11,.29,.21,.39,.3l-.34,.41c-.09-.09-.22-.2-.37-.31-.13,.15-.28,.29-.43,.41h1.19v-1.42h.6v.93c.42-.62,.76-1.49,.98-2.33l.74,.17c-.1,.38-.23,.76-.38,1.13h.5c.14-.38,.28-.86,.36-1.23l.78,.17c-.13,.36-.27,.74-.41,1.06h.69v.74h-.71v.65h.64v.7h-.64v.67h.64v.7h-.64v.69h.78v.76Zm-4.66-1.9c-.04,.23-.09,.46-.14,.65h.3c-.04-.13-.08-.25-.12-.35l.43-.11c.12,.28,.24,.63,.29,.9v-1.09h-.77Zm3.17-2.28h-.58v.65h.58v-.65Zm0,1.35h-.58v.67h.58v-.67Zm-.58,2.07h.58v-.69h-.58v.69Z"/><path class="cls-1" d="M153.49,96.94c-.62,.13-1.18,.24-1.47,.31l-.17-.92c.33-.04,.95-.15,1.64-.27v-1c0-.23-.02-.59-.06-.81h1.04c-.03,.22-.06,.57-.06,.81v.83c1.02-.2,2-.39,2.32-.47,.2-.04,.36-.09,.5-.16l.67,.52c-.06,.1-.17,.26-.23,.38-.31,.58-.95,1.54-1.45,2.04l-.77-.46c.46-.41,.92-1.05,1.12-1.42-.22,.05-1.16,.23-2.16,.43v1.86c0,.43,.13,.59,.9,.59s1.51-.1,2.21-.24l-.03,.95c-.58,.08-1.42,.15-2.17,.15-1.6,0-1.83-.39-1.83-1.21v-1.91Z"/><path class="cls-1" d="M162.02,98.21c1.2-.71,2.11-1.78,2.55-2.72l.55,.99c-.53,.95-1.46,1.91-2.59,2.59-.71,.43-1.61,.82-2.6,.99l-.59-.92c1.09-.15,2-.51,2.68-.92Zm0-2.26l-.71,.73c-.36-.39-1.24-1.16-1.75-1.51l.66-.7c.49,.33,1.4,1.06,1.81,1.49Z"/><path class="cls-1" d="M168.65,100.22l-.75-.71c1.35-.47,1.95-1.07,1.95-2.79v-.27h-1.66v.95c0,.31,.02,.59,.03,.74h-.98c.02-.14,.04-.42,.04-.74v-.95h-.6c-.35,0-.6,.01-.76,.03v-.95c.12,.02,.41,.06,.76,.06h.6v-.69c0-.2-.02-.42-.04-.63h.99c-.02,.13-.04,.36-.04,.63v.69h1.66v-.74c0-.28-.02-.51-.04-.65h1c-.02,.14-.05,.37-.05,.65v.74h.52c.37,0,.58-.01,.77-.05v.93c-.15-.01-.4-.02-.77-.02h-.52v.23c0,1.74-.42,2.79-2.11,3.54Z"/></g><rect class="cls-6" x="80.92" y="157.28" width="147" height="30"/><g><path class="cls-2" d="M161.62,165.97c-.54,1.47-1.37,3.4-2.4,4.69-1.09,1.36-2.88,2.92-4.85,3.71l-1.46-1.5c2-.68,3.72-1.94,4.86-3.33,1.23-1.48,2.07-3.7,2.42-5.52l2,.51c-.23,.46-.41,1.02-.56,1.43Z"/><path class="cls-2" d="M175,164.8l-.47,.19,.82,.54c-.13,.24-.22,.61-.28,.88-.31,1.25-.86,3.24-1.93,4.65-1.15,1.54-2.85,2.8-5.14,3.54l-1.39-1.53c2.53-.59,3.98-1.7,5.01-3,.84-1.06,1.33-2.51,1.5-3.61h-5.95c-.59,0-1.19,.03-1.52,.05v-1.8c.37,.05,1.1,.1,1.52,.1h5.92c.15,0,.37,0,.6-.03-.22-.42-.47-.87-.72-1.24l1.05-.43c.33,.49,.75,1.23,.98,1.69Zm1.83-.32l-1.06,.46c-.28-.52-.68-1.25-1.02-1.73l1.06-.42c.32,.46,.78,1.24,1.02,1.69Z"/></g><rect class="cls-7" x="85.89" y="184.29" width="134.97" height="30" transform="translate(120.19 -49.99) rotate(30)"/><g><path class="cls-2" d="M464.5,174.42h2.22l3.04,9.47h-1.98l-.67-2.43h-3.07l-.67,2.43h-1.92l3.03-9.47Zm-.04,5.57h2.25l-.28-1.04c-.29-.98-.55-2.07-.82-3.09h-.06c-.24,1.04-.52,2.11-.81,3.09l-.28,1.04Z"/><path class="cls-2" d="M470.73,176.73h1.53l.14,1.27h.04c.52-.93,1.29-1.45,2.03-1.45,.4,0,.63,.06,.84,.15l-.32,1.62c-.26-.08-.46-.12-.75-.12-.56,0-1.24,.37-1.64,1.41v4.27h-1.88v-7.16Z"/><path class="cls-2" d="M475.9,180.32c0-2.33,1.46-3.76,3-3.76,.81,0,1.3,.31,1.82,.78l-.06-1.12v-2.52h1.87v10.2h-1.52l-.14-.74h-.05c-.52,.51-1.24,.92-1.98,.92-1.78,0-2.93-1.41-2.93-3.76Zm4.76,1.47v-3.15c-.44-.4-.9-.54-1.34-.54-.81,0-1.48,.77-1.48,2.2s.54,2.22,1.48,2.22c.5,0,.92-.21,1.34-.74Z"/><path class="cls-2" d="M484.47,181.21v-4.48h1.88v4.23c0,1.1,.31,1.5,1,1.5,.59,0,.97-.25,1.46-.89v-4.83h1.88v7.16h-1.54l-.14-1.02h-.05c-.61,.73-1.3,1.2-2.28,1.2-1.55,0-2.21-1.07-2.21-2.86Z"/><path class="cls-2" d="M492.54,174.55c0-.61,.45-1.02,1.1-1.02s1.09,.41,1.09,1.02-.45,1.04-1.09,1.04-1.1-.41-1.1-1.04Zm.15,2.19h1.88v7.16h-1.88v-7.16Z"/><path class="cls-2" d="M496.59,176.73h1.53l.14,.95h.04c.63-.61,1.36-1.12,2.33-1.12,1.55,0,2.21,1.07,2.21,2.88v4.46h-1.88v-4.23c0-1.11-.31-1.5-1.01-1.5-.59,0-.96,.28-1.48,.81v4.92h-1.88v-7.16Z"/><path class="cls-2" d="M504.34,180.32c0-2.38,1.65-3.76,3.44-3.76s3.44,1.38,3.44,3.76-1.65,3.76-3.44,3.76-3.44-1.38-3.44-3.76Zm4.96,0c0-1.34-.55-2.23-1.52-2.23s-1.52,.88-1.52,2.23,.55,2.22,1.52,2.22,1.52-.87,1.52-2.22Z"/></g><polyline class="cls-3" points="311.17 85.78 326.17 98.28 339.67 98.28"/><g><path class="cls-5" d="M215.04,175.66c-.74,16.03-4.74,31.21-11.36,44.89"/><polygon class="cls-2" points="211.22 176.63 215.17 170.28 218.7 176.87 211.22 176.63"/><polygon class="cls-2" points="200.8 217.86 201.23 225.33 207.48 221.23 200.8 217.86"/></g><rect class="cls-8" x="80.17" y="146.28" width="38" height="65"/><g><path class="cls-1" d="M98.7,158.54l-.92-.86c1.66-.57,2.38-1.32,2.38-3.42v-.33h-2.03v1.17c0,.38,.03,.73,.04,.9h-1.2c.02-.17,.04-.51,.04-.9v-1.17h-.72c-.43,0-.74,.02-.94,.04v-1.15c.15,.03,.5,.08,.94,.08h.72v-.86c0-.25-.02-.52-.05-.78h1.22c-.02,.16-.05,.44-.05,.78v.86h2.03v-.91c0-.34-.03-.63-.05-.79h1.23c-.02,.17-.05,.45-.05,.79v.91h.63c.46,0,.71-.02,.94-.06v1.12c-.19-.02-.49-.03-.93-.03h-.64v.29c0,2.13-.51,3.41-2.58,4.33Z"/><path class="cls-1" d="M98.48,161.17c0-.3,0-.82-.07-1.21h1.36c-.08,.39-.08,.9-.08,1.21v4.25c0,.26,0,1,.07,1.54h-1.36c.07-.55,.07-1.2,.07-1.54,0-.59,0-3.5,0-4.25Z"/><path class="cls-1" d="M96.22,174.96l-.93-.63c.56-.55,1.25-1.49,1.61-2.21l.98,.47c-.41,.75-1.19,1.87-1.66,2.38Zm3.59-5.33v.68h1.98c.25,0,.62-.02,.85-.05v1.13c-.26-.03-.6-.04-.84-.04h-1.99v3.99c0,.49-.29,.8-.9,.8-.46,0-.95-.03-1.39-.08l-.1-1.06c.36,.07,.73,.1,.94,.1,.23,0,.3-.08,.31-.3,0-.33,0-3.03,0-3.44h-2.17c-.25,0-.59,0-.83,.03v-1.14c.25,.04,.56,.06,.83,.06h2.17v-.68c0-.22-.04-.6-.06-.75h1.26c-.03,.12-.07,.54-.07,.75Zm3.2,4.7l-1.01,.56c-.37-.73-.98-1.78-1.39-2.3l.93-.51c.43,.55,1.12,1.63,1.46,2.25Zm-.86-4.49l-.69,.29c-.19-.35-.41-.81-.64-1.14l.67-.28c.22,.32,.5,.81,.66,1.13Zm1.12-.26l-.68,.29c-.18-.36-.42-.8-.66-1.13l.68-.28c.22,.33,.52,.82,.66,1.12Z"/><path class="cls-1" d="M97.1,178.22h4.12c.29,0,.57,0,.77-.03v1.08c-.22-.02-.46-.03-.77-.03h-2.01v1.46h2.58c.19,0,.61-.02,.83-.04v1.1c-.23-.02-.62-.03-.8-.03h-2.61v1.29c0,.47,.28,.63,.98,.63,.77,0,1.52-.04,2.2-.12l-.08,1.17c-.56,.04-1.53,.06-2.33,.06-1.56,0-1.95-.54-1.95-1.39v-1.63h-1.4c-.24,0-.67,.03-.93,.04v-1.13c.25,.02,.67,.04,.93,.04h1.4v-1.46h-.93c-.31,0-.58,0-.84,.03v-1.08c.26,.02,.53,.03,.84,.03Z"/><path class="cls-1" d="M98.48,187.64c0-.3,0-.82-.07-1.21h1.36c-.08,.39-.08,.9-.08,1.21v4.25c0,.26,0,1,.07,1.54h-1.36c.07-.55,.07-1.2,.07-1.54,0-.59,0-3.5,0-4.25Z"/><path class="cls-1" d="M99.14,196.24h1.74c.26,0,.56-.04,.74-.09l.87,.53c-.09,.17-.2,.41-.28,.62-.23,.69-.66,1.61-1.27,2.47,.37,.26,.71,.51,.95,.71l-.81,.97c-.24-.22-.56-.48-.91-.77-.75,.79-1.73,1.53-3.05,2.03l-1-.86c1.48-.45,2.43-1.16,3.14-1.86-.56-.41-1.12-.79-1.56-1.08l.76-.77c.45,.25,1,.61,1.54,.97,.43-.63,.8-1.37,.93-1.9h-2.44c-.6,.79-1.39,1.62-2.26,2.22l-.93-.71c1.5-.94,2.28-2.11,2.72-2.85,.13-.21,.32-.61,.4-.89l1.24,.38c-.21,.3-.42,.69-.53,.87Z"/></g><g><path class="cls-2" d="M154.48,175.54h.79v4.77h.03l2.04-2.54h.9l-1.6,1.93,1.81,2.86h-.87l-1.41-2.31-.9,1.05v1.26h-.79v-7.03Z"/><path class="cls-2" d="M159.36,177.77h.66l.07,.69h.03c.46-.45,.95-.81,1.61-.81,1.01,0,1.47,.65,1.47,1.88v3.04h-.8v-2.93c0-.9-.27-1.28-.91-1.28-.49,0-.83,.25-1.32,.73v3.48h-.8v-4.8Z"/><path class="cls-2" d="M164.39,180.17c0-1.6,1.05-2.53,2.23-2.53s2.23,.93,2.23,2.53-1.05,2.51-2.23,2.51-2.23-.92-2.23-2.51Zm3.62,0c0-1.1-.57-1.86-1.4-1.86s-1.39,.75-1.39,1.86,.56,1.84,1.39,1.84,1.4-.73,1.4-1.84Z"/><path class="cls-2" d="M170.86,182.07h-.04l-.07,.5h-.64v-7.03h.8v1.93l-.03,.87c.43-.38,.97-.68,1.5-.68,1.25,0,1.92,.97,1.92,2.44,0,1.65-.98,2.6-2.08,2.6-.44,0-.95-.23-1.36-.61Zm2.61-1.97c0-1.06-.35-1.78-1.26-1.78-.41,0-.83,.23-1.29,.66v2.52c.42,.37,.86,.5,1.18,.5,.79,0,1.38-.72,1.38-1.91Z"/></g><g><path class="cls-2" d="M289.62,165.97c-.54,1.47-1.37,3.4-2.4,4.69-1.09,1.36-2.88,2.92-4.85,3.71l-1.46-1.5c2-.68,3.72-1.94,4.86-3.33,1.23-1.48,2.07-3.7,2.42-5.52l2,.51c-.23,.46-.41,1.02-.56,1.43Z"/><path class="cls-2" d="M303,164.8l-.47,.19,.82,.54c-.13,.24-.22,.61-.28,.88-.31,1.25-.86,3.24-1.93,4.65-1.15,1.54-2.85,2.8-5.14,3.54l-1.39-1.53c2.53-.59,3.98-1.7,5.01-3,.84-1.06,1.33-2.51,1.5-3.61h-5.95c-.59,0-1.19,.03-1.52,.05v-1.8c.37,.05,1.1,.1,1.52,.1h5.92c.15,0,.37,0,.6-.03-.22-.42-.47-.87-.72-1.24l1.05-.43c.33,.49,.75,1.23,.98,1.69Zm1.83-.32l-1.06,.46c-.28-.52-.68-1.25-1.02-1.73l1.06-.42c.32,.46,.78,1.24,1.02,1.69Z"/></g><g><path class="cls-2" d="M282.48,175.54h.79v4.77h.03l2.04-2.54h.9l-1.6,1.93,1.81,2.86h-.87l-1.41-2.31-.9,1.05v1.26h-.79v-7.03Z"/><path class="cls-2" d="M287.36,177.77h.66l.07,.69h.03c.46-.45,.95-.81,1.61-.81,1.01,0,1.47,.65,1.47,1.88v3.04h-.8v-2.93c0-.9-.27-1.28-.91-1.28-.49,0-.83,.25-1.32,.73v3.48h-.8v-4.8Z"/><path class="cls-2" d="M292.39,180.17c0-1.6,1.05-2.53,2.23-2.53s2.23,.93,2.23,2.53-1.05,2.51-2.23,2.51-2.23-.92-2.23-2.51Zm3.62,0c0-1.1-.57-1.86-1.4-1.86s-1.39,.75-1.39,1.86,.56,1.84,1.39,1.84,1.4-.73,1.4-1.84Z"/><path class="cls-2" d="M298.86,182.07h-.04l-.07,.5h-.64v-7.03h.8v1.93l-.03,.87c.43-.38,.97-.68,1.5-.68,1.25,0,1.92,.97,1.92,2.44,0,1.65-.98,2.6-2.08,2.6-.44,0-.95-.23-1.36-.61Zm2.61-1.97c0-1.06-.35-1.78-1.26-1.78-.41,0-.83,.23-1.29,.66v2.52c.42,.37,.86,.5,1.18,.5,.79,0,1.38-.72,1.38-1.91Z"/></g><g><path class="cls-1" d="M134.68,102.09h1.02c1.25,0,1.92,.73,1.92,2.03s-.67,2.05-1.9,2.05h-1.04v-4.08Zm.98,3.66c.96,0,1.43-.6,1.43-1.63s-.47-1.6-1.43-1.6h-.46v3.23h.46Z"/><path class="cls-1" d="M138.38,102.19c0-.19,.14-.33,.34-.33s.34,.13,.34,.33c0,.21-.14,.34-.34,.34s-.34-.13-.34-.34Zm.08,.96h.5v3.02h-.5v-3.02Z"/><path class="cls-1" d="M139.65,105.83l.25-.33c.26,.21,.53,.36,.89,.36,.4,0,.59-.21,.59-.47,0-.31-.36-.44-.69-.57-.42-.16-.88-.36-.88-.87,0-.48,.39-.86,1.04-.86,.37,0,.7,.16,.93,.34l-.24,.33c-.21-.16-.42-.27-.68-.27-.38,0-.56,.2-.56,.43,0,.29,.31,.39,.65,.52,.44,.17,.92,.34,.92,.92,0,.49-.39,.89-1.1,.89-.43,0-.84-.18-1.13-.42Z"/><path class="cls-1" d="M142.68,105.24v-1.67h-.45v-.38l.47-.03,.06-.85h.42v.85h.82v.41h-.82v1.68c0,.37,.12,.58,.47,.58,.11,0,.25-.04,.34-.08l.1,.38c-.17,.06-.37,.11-.55,.11-.64,0-.86-.41-.86-1.01Z"/><path class="cls-1" d="M144.5,105.39c0-.66,.57-.98,1.85-1.13,0-.39-.13-.76-.62-.76-.35,0-.67,.16-.91,.32l-.2-.35c.28-.18,.71-.39,1.19-.39,.73,0,1.04,.49,1.04,1.24v1.86h-.42l-.04-.36h-.02c-.29,.24-.63,.43-1,.43-.51,0-.88-.31-.88-.86Zm1.85,.05v-.84c-1.02,.12-1.36,.37-1.36,.76,0,.34,.23,.48,.53,.48s.53-.14,.83-.4Z"/><path class="cls-1" d="M147.83,103.16h.42l.04,.43h.02c.29-.28,.6-.51,1.01-.51,.63,0,.92,.41,.92,1.18v1.91h-.5v-1.84c0-.57-.17-.81-.57-.81-.31,0-.52,.16-.83,.46v2.19h-.51v-3.02Z"/><path class="cls-1" d="M151,104.67c0-1.01,.68-1.59,1.46-1.59,.39,0,.67,.17,.88,.36l-.26,.33c-.18-.16-.36-.27-.6-.27-.55,0-.95,.47-.95,1.17s.38,1.16,.93,1.16c.28,0,.52-.13,.71-.3l.22,.34c-.27,.24-.62,.38-.98,.38-.8,0-1.42-.58-1.42-1.58Z"/><path class="cls-1" d="M153.83,104.67c0-.98,.66-1.59,1.36-1.59,.77,0,1.2,.56,1.2,1.42,0,.11-.01,.22-.02,.29h-2.03c.03,.64,.43,1.06,1,1.06,.29,0,.53-.09,.76-.24l.18,.33c-.27,.17-.59,.31-1,.31-.8,0-1.44-.58-1.44-1.58Zm2.12-.25c0-.61-.28-.93-.75-.93-.43,0-.81,.34-.87,.93h1.62Z"/><path class="cls-1" d="M158.04,105.83l.25-.33c.26,.21,.53,.36,.89,.36,.4,0,.59-.21,.59-.47,0-.31-.36-.44-.69-.57-.42-.16-.88-.36-.88-.87,0-.48,.39-.86,1.04-.86,.37,0,.7,.16,.93,.34l-.24,.33c-.21-.16-.42-.27-.68-.27-.38,0-.56,.2-.56,.43,0,.29,.31,.39,.65,.52,.44,.17,.92,.34,.92,.92,0,.49-.39,.89-1.1,.89-.43,0-.84-.18-1.13-.42Z"/><path class="cls-1" d="M160.76,104.67c0-.98,.66-1.59,1.36-1.59,.77,0,1.2,.56,1.2,1.42,0,.11-.01,.22-.02,.29h-2.03c.03,.64,.43,1.06,1,1.06,.29,0,.53-.09,.76-.24l.18,.33c-.27,.17-.59,.31-1,.31-.8,0-1.44-.58-1.44-1.58Zm2.12-.25c0-.61-.28-.93-.75-.93-.43,0-.81,.34-.87,.93h1.62Z"/><path class="cls-1" d="M164.07,103.16h.42l.04,.43h.02c.29-.28,.6-.51,1.01-.51,.63,0,.92,.41,.92,1.18v1.91h-.5v-1.84c0-.57-.17-.81-.57-.81-.31,0-.52,.16-.83,.46v2.19h-.51v-3.02Z"/><path class="cls-1" d="M167.12,105.83l.25-.33c.26,.21,.53,.36,.89,.36,.4,0,.59-.21,.59-.47,0-.31-.36-.44-.69-.57-.42-.16-.88-.36-.88-.87,0-.48,.39-.86,1.04-.86,.37,0,.7,.16,.93,.34l-.24,.33c-.21-.16-.42-.27-.68-.27-.38,0-.56,.2-.56,.43,0,.29,.31,.39,.65,.52,.44,.17,.92,.34,.92,.92,0,.49-.39,.89-1.1,.89-.43,0-.84-.18-1.13-.42Z"/><path class="cls-1" d="M169.84,104.67c0-1.01,.66-1.59,1.4-1.59s1.4,.58,1.4,1.59-.66,1.58-1.4,1.58-1.4-.58-1.4-1.58Zm2.28,0c0-.69-.36-1.17-.88-1.17s-.87,.47-.87,1.17,.35,1.16,.87,1.16,.88-.46,.88-1.16Z"/><path class="cls-1" d="M173.44,103.16h.42l.04,.55h.02c.21-.38,.52-.63,.86-.63,.13,0,.23,.02,.32,.07l-.09,.44c-.1-.04-.17-.05-.29-.05-.25,0-.56,.18-.76,.69v1.94h-.51v-3.02Z"/></g><g><path class="cls-1" d="M84.39,207.64l.31-.35c.29,.3,.7,.5,1.12,.5,.53,0,.86-.27,.86-.67s-.29-.55-.68-.72l-.59-.25c-.38-.16-.83-.45-.83-1.04,0-.63,.54-1.08,1.28-1.08,.48,0,.91,.21,1.2,.51l-.27,.33c-.25-.23-.55-.38-.93-.38-.46,0-.76,.23-.76,.6,0,.39,.36,.54,.67,.68l.58,.25c.47,.21,.84,.48,.84,1.09,0,.64-.53,1.16-1.38,1.16-.58,0-1.07-.23-1.43-.61Z"/><path class="cls-1" d="M87.73,206.67c0-.98,.66-1.59,1.36-1.59,.77,0,1.2,.56,1.2,1.42,0,.11-.01,.22-.02,.29h-2.03c.03,.64,.43,1.06,1,1.06,.29,0,.53-.09,.76-.24l.18,.33c-.27,.17-.59,.31-1,.31-.8,0-1.44-.58-1.44-1.58Zm2.12-.25c0-.61-.28-.93-.75-.93-.43,0-.81,.34-.87,.93h1.62Z"/><path class="cls-1" d="M91.04,205.16h.42l.04,.55h.02c.21-.38,.52-.63,.86-.63,.13,0,.23,.02,.32,.07l-.09,.44c-.1-.04-.17-.05-.29-.05-.25,0-.56,.18-.76,.69v1.94h-.51v-3.02Z"/><path class="cls-1" d="M92.76,205.16h.53l.57,1.72c.09,.29,.19,.61,.28,.89h.02c.09-.28,.19-.59,.28-.89l.57-1.72h.5l-1.07,3.02h-.59l-1.09-3.02Z"/><path class="cls-1" d="M95.87,206.67c0-1.01,.66-1.59,1.4-1.59s1.4,.58,1.4,1.59-.66,1.58-1.4,1.58-1.4-.58-1.4-1.58Zm2.28,0c0-.69-.36-1.17-.88-1.17s-.87,.47-.87,1.17,.35,1.16,.87,1.16,.88-.46,.88-1.16Z"/><path class="cls-1" d="M99.47,205.16h.42l.04,.44h.02c.26-.29,.58-.52,.94-.52,.46,0,.71,.22,.83,.58,.31-.34,.63-.58,.99-.58,.62,0,.92,.41,.92,1.18v1.91h-.5v-1.84c0-.57-.18-.81-.56-.81-.23,0-.48,.15-.76,.46v2.19h-.5v-1.84c0-.57-.18-.81-.56-.81-.23,0-.48,.15-.76,.46v2.19h-.5v-3.02Z"/><path class="cls-1" d="M104.39,206.67c0-1.01,.66-1.59,1.4-1.59s1.4,.58,1.4,1.59-.66,1.58-1.4,1.58-1.4-.58-1.4-1.58Zm2.28,0c0-.69-.36-1.17-.88-1.17s-.87,.47-.87,1.17,.35,1.16,.87,1.16,.88-.46,.88-1.16Z"/><path class="cls-1" d="M108.08,207.24v-1.67h-.45v-.38l.47-.03,.06-.85h.42v.85h.82v.41h-.82v1.68c0,.37,.12,.58,.47,.58,.11,0,.25-.04,.34-.08l.1,.38c-.17,.06-.37,.11-.55,.11-.64,0-.86-.41-.86-1.01Z"/><path class="cls-1" d="M109.86,206.67c0-1.01,.66-1.59,1.4-1.59s1.4,.58,1.4,1.59-.66,1.58-1.4,1.58-1.4-.58-1.4-1.58Zm2.28,0c0-.69-.36-1.17-.88-1.17s-.87,.47-.87,1.17,.35,1.16,.87,1.16,.88-.46,.88-1.16Z"/><path class="cls-1" d="M113.45,205.16h.42l.04,.55h.02c.21-.38,.52-.63,.86-.63,.13,0,.23,.02,.32,.07l-.09,.44c-.1-.04-.17-.05-.29-.05-.25,0-.56,.18-.76,.69v1.94h-.51v-3.02Z"/></g><g><path class="cls-2" d="M53.97,287.09h2.35v.44h-1.83v1.38h1.56v.43h-1.56v1.83h-.52v-4.08Z"/><path class="cls-2" d="M57,288.16h.42l.04,.55h.02c.21-.38,.52-.63,.86-.63,.13,0,.23,.02,.32,.07l-.09,.44c-.1-.04-.17-.05-.29-.05-.25,0-.56,.18-.76,.69v1.94h-.5v-3.02Z"/><path class="cls-2" d="M58.93,289.67c0-1.01,.66-1.59,1.4-1.59s1.4,.58,1.4,1.59-.66,1.58-1.4,1.58-1.4-.58-1.4-1.58Zm2.28,0c0-.69-.36-1.17-.88-1.17s-.87,.47-.87,1.17,.35,1.16,.87,1.16,.88-.46,.88-1.16Z"/><path class="cls-2" d="M62.53,288.16h.42l.04,.43h.02c.29-.28,.6-.51,1.01-.51,.63,0,.92,.41,.92,1.18v1.91h-.5v-1.84c0-.57-.17-.81-.57-.81-.31,0-.52,.16-.83,.46v2.19h-.51v-3.02Z"/><path class="cls-2" d="M66.01,290.24v-1.67h-.45v-.38l.47-.03,.06-.85h.42v.85h.82v.41h-.82v1.68c0,.37,.12,.58,.47,.58,.11,0,.24-.04,.34-.08l.1,.38c-.17,.06-.37,.11-.56,.11-.64,0-.86-.41-.86-1.01Z"/><path class="cls-2" d="M68.83,288.16h.53l.57,1.72c.09,.29,.19,.61,.28,.89h.02c.09-.28,.19-.59,.28-.89l.57-1.72h.5l-1.07,3.02h-.59l-1.09-3.02Z"/><path class="cls-2" d="M72.08,287.19c0-.19,.14-.33,.34-.33s.34,.13,.34,.33c0,.21-.14,.34-.34,.34s-.34-.13-.34-.34Zm.08,.96h.51v3.02h-.51v-3.02Z"/><path class="cls-2" d="M73.46,289.67c0-.98,.66-1.59,1.36-1.59,.77,0,1.2,.56,1.2,1.42,0,.11-.01,.22-.02,.29h-2.03c.03,.64,.43,1.06,1,1.06,.29,0,.53-.09,.76-.24l.18,.33c-.27,.17-.59,.31-1,.31-.8,0-1.44-.58-1.44-1.58Zm2.12-.25c0-.61-.28-.93-.75-.93-.43,0-.81,.34-.87,.93h1.62Z"/><path class="cls-2" d="M76.41,288.16h.52l.45,1.74c.06,.29,.12,.56,.18,.84h.03c.07-.28,.13-.56,.21-.84l.47-1.74h.49l.47,1.74c.07,.29,.14,.56,.21,.84h.02c.07-.28,.12-.56,.19-.84l.44-1.74h.48l-.81,3.02h-.61l-.44-1.63c-.08-.28-.13-.56-.21-.87h-.03c-.07,.31-.13,.59-.21,.88l-.42,1.62h-.59l-.84-3.02Z"/><path class="cls-2" d="M82.25,289.67c0-1.01,.66-1.59,1.4-1.59s1.4,.58,1.4,1.59-.66,1.58-1.4,1.58-1.4-.58-1.4-1.58Zm2.28,0c0-.69-.36-1.17-.88-1.17s-.87,.47-.87,1.17,.35,1.16,.87,1.16,.88-.46,.88-1.16Z"/><path class="cls-2" d="M85.93,288.57h-.41v-.38l.41-.03v-.48c0-.61,.28-.99,.88-.99,.18,0,.37,.04,.51,.1l-.11,.38c-.11-.05-.23-.08-.34-.08-.29,0-.43,.21-.43,.59v.48h.64v.41h-.64v2.6h-.51v-2.6Z"/><path class="cls-2" d="M88.99,290.24v-1.67h-.45v-.38l.47-.03,.06-.85h.42v.85h.82v.41h-.82v1.68c0,.37,.12,.58,.47,.58,.11,0,.24-.04,.34-.08l.1,.38c-.17,.06-.37,.11-.56,.11-.64,0-.86-.41-.86-1.01Z"/><path class="cls-2" d="M91,286.75h.5v1.21l-.02,.62c.28-.28,.59-.51,1-.51,.63,0,.92,.41,.92,1.18v1.91h-.51v-1.84c0-.57-.17-.81-.57-.81-.31,0-.52,.16-.83,.46v2.19h-.5v-4.42Z"/><path class="cls-2" d="M94.15,289.67c0-.98,.66-1.59,1.36-1.59,.77,0,1.2,.56,1.2,1.42,0,.11-.01,.22-.02,.29h-2.03c.03,.64,.43,1.06,1,1.06,.29,0,.53-.09,.75-.24l.18,.33c-.27,.17-.59,.31-1,.31-.8,0-1.44-.58-1.44-1.58Zm2.12-.25c0-.61-.28-.93-.75-.93-.43,0-.8,.34-.87,.93h1.62Z"/><path class="cls-2" d="M98.49,289.67c0-.98,.62-1.59,1.31-1.59,.36,0,.58,.13,.85,.36l-.02-.52v-1.16h.5v4.42h-.41l-.04-.36h-.02c-.24,.23-.56,.43-.92,.43-.75,0-1.24-.57-1.24-1.58Zm2.13,.74v-1.58c-.26-.23-.49-.32-.74-.32-.49,0-.87,.47-.87,1.16,0,.73,.3,1.16,.83,1.16,.28,0,.52-.14,.78-.42Z"/><path class="cls-2" d="M101.92,289.67c0-1.01,.66-1.59,1.4-1.59s1.4,.58,1.4,1.59-.66,1.58-1.4,1.58-1.4-.58-1.4-1.58Zm2.28,0c0-.69-.36-1.17-.88-1.17s-.87,.47-.87,1.17,.35,1.16,.87,1.16,.88-.46,.88-1.16Z"/><path class="cls-2" d="M105.29,289.67c0-1.01,.66-1.59,1.4-1.59s1.4,.58,1.4,1.59-.66,1.58-1.4,1.58-1.4-.58-1.4-1.58Zm2.28,0c0-.69-.36-1.17-.88-1.17s-.87,.47-.87,1.17,.35,1.16,.87,1.16,.88-.46,.88-1.16Z"/><path class="cls-2" d="M108.89,288.16h.42l.04,.55h.02c.21-.38,.52-.63,.86-.63,.13,0,.23,.02,.32,.07l-.09,.44c-.1-.04-.17-.05-.29-.05-.25,0-.56,.18-.76,.69v1.94h-.51v-3.02Z"/><path class="cls-2" d="M112.29,286.75h.5v3h.02l1.28-1.59h.57l-1.01,1.22,1.14,1.8h-.55l-.88-1.46-.57,.66v.79h-.5v-4.42Z"/><path class="cls-2" d="M115.36,288.16h.42l.04,.43h.02c.29-.28,.6-.51,1.01-.51,.63,0,.92,.41,.92,1.18v1.91h-.51v-1.84c0-.57-.17-.81-.57-.81-.31,0-.52,.16-.83,.46v2.19h-.5v-3.02Z"/><path class="cls-2" d="M118.53,289.67c0-1.01,.66-1.59,1.4-1.59s1.4,.58,1.4,1.59-.66,1.58-1.4,1.58-1.4-.58-1.4-1.58Zm2.28,0c0-.69-.36-1.17-.88-1.17s-.87,.47-.87,1.17,.35,1.16,.87,1.16,.88-.46,.88-1.16Z"/><path class="cls-2" d="M122.6,290.86h-.02l-.04,.31h-.41v-4.42h.51v1.21l-.02,.54c.27-.24,.61-.43,.94-.43,.78,0,1.21,.61,1.21,1.53,0,1.04-.62,1.63-1.31,1.63-.28,0-.59-.14-.86-.38Zm1.64-1.24c0-.67-.22-1.12-.79-1.12-.26,0-.52,.14-.81,.42v1.58c.27,.23,.54,.32,.74,.32,.5,0,.87-.45,.87-1.2Z"/><path class="cls-2" d="M126.48,290.83l.25-.33c.26,.21,.53,.36,.89,.36,.4,0,.59-.21,.59-.47,0-.31-.36-.44-.69-.57-.42-.16-.88-.36-.88-.87,0-.48,.39-.86,1.04-.86,.37,0,.7,.16,.93,.34l-.24,.33c-.21-.16-.42-.27-.68-.27-.38,0-.56,.2-.56,.43,0,.29,.31,.39,.65,.52,.44,.17,.92,.34,.92,.92,0,.49-.39,.89-1.1,.89-.43,0-.84-.18-1.13-.42Z"/><path class="cls-2" d="M129.19,289.67c0-.98,.66-1.59,1.36-1.59,.77,0,1.2,.56,1.2,1.42,0,.11-.01,.22-.02,.29h-2.03c.03,.64,.43,1.06,1,1.06,.29,0,.53-.09,.76-.24l.18,.33c-.27,.17-.59,.31-1,.31-.8,0-1.44-.58-1.44-1.58Zm2.12-.25c0-.61-.28-.93-.75-.93-.43,0-.81,.34-.87,.93h1.62Z"/><path class="cls-2" d="M132.27,289.67c0-1.01,.68-1.59,1.46-1.59,.39,0,.67,.17,.88,.36l-.26,.33c-.18-.16-.36-.27-.6-.27-.55,0-.95,.47-.95,1.17s.38,1.16,.93,1.16c.28,0,.52-.13,.71-.3l.22,.34c-.27,.24-.62,.38-.98,.38-.8,0-1.42-.58-1.42-1.58Z"/><path class="cls-2" d="M135.42,290.24v-1.67h-.45v-.38l.47-.03,.06-.85h.42v.85h.82v.41h-.82v1.68c0,.37,.12,.58,.47,.58,.11,0,.25-.04,.34-.08l.1,.38c-.17,.06-.37,.11-.55,.11-.64,0-.86-.41-.86-1.01Z"/><path class="cls-2" d="M137.34,287.19c0-.19,.14-.33,.34-.33s.34,.13,.34,.33c0,.21-.14,.34-.34,.34s-.34-.13-.34-.34Zm.08,.96h.51v3.02h-.51v-3.02Z"/><path class="cls-2" d="M138.73,289.67c0-1.01,.66-1.59,1.4-1.59s1.4,.58,1.4,1.59-.66,1.58-1.4,1.58-1.4-.58-1.4-1.58Zm2.28,0c0-.69-.36-1.17-.88-1.17s-.87,.47-.87,1.17,.35,1.16,.87,1.16,.88-.46,.88-1.16Z"/><path class="cls-2" d="M142.33,288.16h.42l.04,.43h.02c.29-.28,.6-.51,1.01-.51,.63,0,.92,.41,.92,1.18v1.91h-.5v-1.84c0-.57-.17-.81-.57-.81-.31,0-.52,.16-.83,.46v2.19h-.51v-3.02Z"/></g><g><path class="cls-2" d="M345.68,290.64l.31-.35c.29,.3,.7,.5,1.12,.5,.53,0,.86-.27,.86-.67s-.29-.55-.68-.72l-.59-.25c-.38-.16-.83-.45-.83-1.04,0-.63,.54-1.08,1.28-1.08,.48,0,.91,.21,1.2,.51l-.27,.33c-.25-.23-.55-.38-.93-.38-.46,0-.76,.23-.76,.6,0,.39,.36,.54,.67,.68l.58,.25c.47,.21,.84,.48,.84,1.09,0,.64-.53,1.16-1.38,1.16-.58,0-1.07-.23-1.43-.61Z"/><path class="cls-2" d="M349.16,287.19c0-.19,.14-.33,.34-.33s.34,.13,.34,.33c0,.21-.14,.34-.34,.34s-.34-.13-.34-.34Zm.08,.96h.51v3.02h-.51v-3.02Z"/><path class="cls-2" d="M350.56,289.67c0-.98,.62-1.59,1.31-1.59,.36,0,.58,.13,.85,.36l-.02-.52v-1.16h.5v4.42h-.41l-.04-.36h-.02c-.24,.23-.56,.43-.92,.43-.75,0-1.24-.57-1.24-1.58Zm2.13,.74v-1.58c-.26-.23-.49-.32-.74-.32-.49,0-.87,.47-.87,1.16,0,.73,.3,1.16,.83,1.16,.28,0,.52-.14,.78-.42Z"/><path class="cls-2" d="M354,289.67c0-.98,.66-1.59,1.36-1.59,.77,0,1.2,.56,1.2,1.42,0,.11-.01,.22-.02,.29h-2.03c.03,.64,.43,1.06,1,1.06,.29,0,.53-.09,.76-.24l.18,.33c-.27,.17-.59,.31-1,.31-.8,0-1.44-.58-1.44-1.58Zm2.12-.25c0-.61-.28-.93-.75-.93-.43,0-.81,.34-.87,.93h1.62Z"/><path class="cls-2" d="M358.11,288.16h.53l.57,1.72c.09,.29,.19,.61,.28,.89h.02c.09-.28,.19-.59,.28-.89l.57-1.72h.5l-1.07,3.02h-.59l-1.09-3.02Z"/><path class="cls-2" d="M361.37,287.19c0-.19,.14-.33,.34-.33s.34,.13,.34,.33c0,.21-.14,.34-.34,.34s-.34-.13-.34-.34Zm.08,.96h.5v3.02h-.5v-3.02Z"/><path class="cls-2" d="M362.75,289.67c0-.98,.66-1.59,1.36-1.59,.77,0,1.2,.56,1.2,1.42,0,.11-.01,.22-.02,.29h-2.03c.03,.64,.43,1.06,1,1.06,.29,0,.53-.09,.75-.24l.18,.33c-.27,.17-.59,.31-1,.31-.8,0-1.44-.58-1.44-1.58Zm2.12-.25c0-.61-.28-.93-.75-.93-.43,0-.8,.34-.87,.93h1.62Z"/><path class="cls-2" d="M365.7,288.16h.52l.45,1.74c.06,.29,.12,.56,.18,.84h.03c.07-.28,.13-.56,.21-.84l.47-1.74h.49l.47,1.74c.07,.29,.14,.56,.21,.84h.02c.07-.28,.12-.56,.19-.84l.44-1.74h.48l-.81,3.02h-.61l-.44-1.63c-.08-.28-.13-.56-.21-.87h-.03c-.07,.31-.13,.59-.21,.88l-.42,1.62h-.59l-.84-3.02Z"/></g><g><path class="cls-1" d="M339.2,158.54l-.92-.86c1.66-.57,2.38-1.32,2.38-3.42v-.33h-2.03v1.17c0,.38,.03,.73,.04,.9h-1.2c.02-.17,.04-.51,.04-.9v-1.17h-.72c-.43,0-.74,.02-.94,.04v-1.15c.15,.03,.5,.08,.94,.08h.72v-.86c0-.25-.02-.52-.05-.78h1.22c-.02,.16-.05,.44-.05,.78v.86h2.03v-.91c0-.34-.03-.63-.05-.79h1.23c-.02,.17-.05,.45-.05,.79v.91h.63c.46,0,.71-.02,.94-.06v1.12c-.19-.02-.49-.03-.93-.03h-.64v.29c0,2.13-.51,3.41-2.58,4.33Z"/><path class="cls-1" d="M338.98,161.17c0-.3,0-.82-.07-1.21h1.36c-.08,.39-.08,.9-.08,1.21v4.25c0,.26,0,1,.07,1.54h-1.36c.07-.55,.07-1.2,.07-1.54,0-.59,0-3.5,0-4.25Z"/><path class="cls-1" d="M336.72,174.96l-.93-.63c.56-.55,1.25-1.49,1.61-2.21l.98,.47c-.41,.75-1.19,1.87-1.66,2.38Zm3.59-5.33v.68h1.98c.25,0,.62-.02,.85-.05v1.13c-.26-.03-.6-.04-.84-.04h-1.99v3.99c0,.49-.29,.8-.9,.8-.46,0-.95-.03-1.39-.08l-.1-1.06c.36,.07,.73,.1,.94,.1,.23,0,.3-.08,.31-.3,0-.33,0-3.03,0-3.44h-2.17c-.25,0-.59,0-.83,.03v-1.14c.25,.04,.56,.06,.83,.06h2.17v-.68c0-.22-.04-.6-.06-.75h1.26c-.03,.12-.07,.54-.07,.75Zm3.2,4.7l-1.01,.56c-.37-.73-.98-1.78-1.39-2.3l.93-.51c.43,.55,1.12,1.63,1.46,2.25Zm-.86-4.49l-.69,.29c-.19-.35-.41-.81-.64-1.14l.67-.28c.22,.32,.5,.81,.66,1.13Zm1.12-.26l-.68,.29c-.18-.36-.42-.8-.66-1.13l.68-.28c.22,.33,.52,.82,.66,1.12Z"/><path class="cls-1" d="M337.6,178.22h4.12c.29,0,.57,0,.77-.03v1.08c-.22-.02-.46-.03-.77-.03h-2.01v1.46h2.58c.19,0,.61-.02,.83-.04v1.1c-.23-.02-.62-.03-.8-.03h-2.61v1.29c0,.47,.28,.63,.98,.63,.77,0,1.52-.04,2.2-.12l-.08,1.17c-.56,.04-1.53,.06-2.33,.06-1.56,0-1.95-.54-1.95-1.39v-1.63h-1.4c-.24,0-.67,.03-.93,.04v-1.13c.25,.02,.67,.04,.93,.04h1.4v-1.46h-.93c-.31,0-.58,0-.84,.03v-1.08c.26,.02,.53,.03,.84,.03Z"/><path class="cls-1" d="M338.98,187.64c0-.3,0-.82-.07-1.21h1.36c-.08,.39-.08,.9-.08,1.21v4.25c0,.26,0,1,.07,1.54h-1.36c.07-.55,.07-1.2,.07-1.54,0-.59,0-3.5,0-4.25Z"/><path class="cls-1" d="M339.64,196.24h1.74c.26,0,.56-.04,.74-.09l.87,.53c-.09,.17-.2,.41-.28,.62-.23,.69-.66,1.61-1.27,2.47,.37,.26,.71,.51,.95,.71l-.81,.97c-.24-.22-.56-.48-.91-.77-.75,.79-1.73,1.53-3.05,2.03l-1-.86c1.48-.45,2.43-1.16,3.14-1.86-.56-.41-1.12-.79-1.56-1.08l.76-.77c.45,.25,1,.61,1.54,.97,.43-.63,.8-1.37,.93-1.9h-2.44c-.6,.79-1.39,1.62-2.26,2.22l-.93-.71c1.5-.94,2.28-2.11,2.72-2.85,.13-.21,.32-.61,.4-.89l1.24,.38c-.21,.3-.42,.69-.53,.87Z"/></g><g><path class="cls-1" d="M324.44,207.64l.31-.35c.29,.3,.7,.5,1.12,.5,.53,0,.86-.27,.86-.67s-.29-.55-.68-.72l-.59-.25c-.38-.16-.83-.45-.83-1.04,0-.63,.54-1.08,1.28-1.08,.48,0,.91,.21,1.2,.51l-.27,.33c-.25-.23-.55-.38-.93-.38-.46,0-.76,.23-.76,.6,0,.39,.36,.54,.67,.68l.58,.25c.47,.21,.84,.48,.84,1.09,0,.64-.53,1.16-1.38,1.16-.58,0-1.07-.23-1.43-.61Z"/><path class="cls-1" d="M327.78,206.67c0-.98,.66-1.59,1.36-1.59,.77,0,1.2,.56,1.2,1.42,0,.11-.01,.22-.02,.29h-2.03c.03,.64,.43,1.06,1,1.06,.29,0,.53-.09,.76-.24l.18,.33c-.27,.17-.59,.31-1,.31-.8,0-1.44-.58-1.44-1.58Zm2.12-.25c0-.61-.28-.93-.75-.93-.43,0-.81,.34-.87,.93h1.62Z"/><path class="cls-1" d="M331.09,205.16h.42l.04,.55h.02c.21-.38,.52-.63,.86-.63,.13,0,.23,.02,.32,.07l-.09,.44c-.1-.04-.17-.05-.29-.05-.25,0-.56,.18-.76,.69v1.94h-.51v-3.02Z"/><path class="cls-1" d="M332.81,205.16h.53l.57,1.72c.09,.29,.19,.61,.28,.89h.02c.09-.28,.19-.59,.28-.89l.57-1.72h.5l-1.07,3.02h-.59l-1.09-3.02Z"/><path class="cls-1" d="M335.91,206.67c0-1.01,.66-1.59,1.4-1.59s1.4,.58,1.4,1.59-.66,1.58-1.4,1.58-1.4-.58-1.4-1.58Zm2.28,0c0-.69-.36-1.17-.88-1.17s-.87,.47-.87,1.17,.35,1.16,.87,1.16,.88-.46,.88-1.16Z"/><path class="cls-1" d="M339.51,205.16h.42l.04,.44h.02c.26-.29,.58-.52,.94-.52,.46,0,.71,.22,.83,.58,.31-.34,.63-.58,.99-.58,.62,0,.92,.41,.92,1.18v1.91h-.5v-1.84c0-.57-.18-.81-.56-.81-.23,0-.48,.15-.76,.46v2.19h-.5v-1.84c0-.57-.18-.81-.56-.81-.23,0-.48,.15-.76,.46v2.19h-.5v-3.02Z"/><path class="cls-1" d="M344.44,206.67c0-1.01,.66-1.59,1.4-1.59s1.4,.58,1.4,1.59-.66,1.58-1.4,1.58-1.4-.58-1.4-1.58Zm2.28,0c0-.69-.36-1.17-.88-1.17s-.87,.47-.87,1.17,.35,1.16,.87,1.16,.88-.46,.88-1.16Z"/><path class="cls-1" d="M348.12,207.24v-1.67h-.45v-.38l.47-.03,.06-.85h.42v.85h.82v.41h-.82v1.68c0,.37,.12,.58,.47,.58,.11,0,.25-.04,.34-.08l.1,.38c-.17,.06-.37,.11-.55,.11-.64,0-.86-.41-.86-1.01Z"/><path class="cls-1" d="M349.9,206.67c0-1.01,.66-1.59,1.4-1.59s1.4,.58,1.4,1.59-.66,1.58-1.4,1.58-1.4-.58-1.4-1.58Zm2.28,0c0-.69-.36-1.17-.88-1.17s-.87,.47-.87,1.17,.35,1.16,.87,1.16,.88-.46,.88-1.16Z"/><path class="cls-1" d="M353.5,205.16h.42l.04,.55h.02c.21-.38,.52-.63,.86-.63,.13,0,.23,.02,.32,.07l-.09,.44c-.1-.04-.17-.05-.29-.05-.25,0-.56,.18-.76,.69v1.94h-.51v-3.02Z"/></g><g><path class="cls-2" d="M296.65,75.7l.07,.73c-1,.25-2.09,.5-2.9,.69l-.15-.79c.11-.02,.23-.04,.36-.07v-2.34h.68v2.21l.31-.07v-2.63h-.94v-2.32h2.43v2.32h-.76v.82h.85v.73h-.85v.92l.9-.2Zm-1.85-2.99h.95v-.89h-.95v.89Zm5.5,4.35h-2.59v.32h-.82v-6.28h3.28v.78h-2.46v.87h2.23v2.64h-2.23v.88h2.59v.78Zm-2.59-3.54v1.1h1.41v-1.1h-1.41Z"/><path class="cls-2" d="M304.25,72.08h-3.49v-.66h1.33v-.57h.81v.57h1.35v.66Zm3.05,4.99h-2.06v.33h-.75v-3.62c-.04,.07-.09,.13-.13,.2-.09-.09-.25-.24-.41-.36v.62h-1.13l-.06,.34h1.35v2.12c0,.32-.06,.48-.28,.59-.2,.1-.5,.11-.9,.11-.03-.19-.13-.45-.21-.62,.25,.01,.51,0,.59,0,.08,0,.11-.02,.11-.09v-.26l-.43,.13c0-.07-.02-.15-.04-.25-.43,.04-.85,.07-1.23,.09l-.06-.54h.26c.05-.22,.08-.46,.13-.69h-.46v2.23h-.67v-2.82h1.21c.01-.12,.03-.23,.04-.34h-1.09v-1.98h.57v1.42h.43c-.11-.09-.29-.22-.4-.3,.17-.12,.33-.26,.47-.41-.14-.09-.29-.17-.42-.25l.32-.36c.13,.07,.27,.15,.41,.23,.08-.13,.16-.27,.22-.41l.53,.13c-.08,.2-.19,.38-.31,.56,.15,.11,.29,.21,.39,.3l-.34,.41c-.09-.09-.22-.2-.37-.31-.13,.15-.28,.29-.43,.41h1.19v-1.42h.6v.93c.42-.62,.76-1.49,.98-2.33l.74,.17c-.1,.38-.23,.76-.38,1.13h.5c.14-.38,.28-.86,.36-1.23l.78,.17c-.13,.36-.27,.74-.41,1.06h.69v.74h-.71v.65h.64v.7h-.64v.67h.64v.7h-.64v.69h.78v.76Zm-4.66-1.9c-.04,.23-.09,.46-.14,.65h.3c-.04-.13-.08-.25-.12-.35l.43-.11c.12,.28,.24,.63,.29,.9v-1.09h-.77Zm3.17-2.28h-.58v.65h.58v-.65Zm0,1.35h-.58v.67h.58v-.67Zm-.58,2.07h.58v-.69h-.58v.69Z"/><path class="cls-2" d="M309.49,73.94c-.62,.13-1.18,.24-1.47,.31l-.17-.92c.33-.04,.95-.15,1.64-.27v-1c0-.23-.02-.59-.06-.81h1.04c-.03,.22-.06,.57-.06,.81v.83c1.02-.2,2-.39,2.32-.47,.2-.04,.36-.09,.5-.16l.67,.52c-.06,.1-.17,.26-.23,.38-.31,.58-.95,1.54-1.45,2.04l-.77-.46c.46-.41,.92-1.05,1.12-1.42-.22,.05-1.16,.23-2.16,.43v1.86c0,.43,.13,.59,.9,.59s1.51-.1,2.21-.24l-.03,.95c-.58,.08-1.42,.15-2.17,.15-1.6,0-1.83-.39-1.83-1.21v-1.91Z"/><path class="cls-2" d="M318.02,75.21c1.2-.71,2.11-1.78,2.55-2.72l.55,.99c-.53,.95-1.46,1.91-2.59,2.59-.71,.43-1.61,.82-2.6,.99l-.59-.92c1.09-.15,2-.51,2.68-.92Zm0-2.26l-.71,.73c-.36-.39-1.24-1.16-1.75-1.51l.66-.7c.49,.33,1.4,1.06,1.81,1.49Z"/><path class="cls-2" d="M324.65,77.22l-.75-.71c1.35-.47,1.95-1.07,1.95-2.79v-.27h-1.66v.95c0,.31,.02,.59,.03,.74h-.98c.02-.14,.04-.42,.04-.74v-.95h-.6c-.35,0-.6,.01-.76,.03v-.95c.12,.02,.41,.06,.76,.06h.6v-.69c0-.2-.02-.42-.04-.63h.99c-.02,.13-.04,.36-.04,.63v.69h1.66v-.74c0-.28-.02-.51-.04-.65h1c-.02,.14-.05,.37-.05,.65v.74h.52c.37,0,.58-.01,.77-.05v.93c-.15-.01-.4-.02-.77-.02h-.52v.23c0,1.74-.42,2.79-2.11,3.54Z"/></g><g><path class="cls-2" d="M290.68,79.09h1.02c1.25,0,1.92,.73,1.92,2.03s-.67,2.05-1.9,2.05h-1.04v-4.08Zm.98,3.66c.96,0,1.43-.6,1.43-1.63s-.47-1.6-1.43-1.6h-.46v3.23h.46Z"/><path class="cls-2" d="M294.38,79.19c0-.19,.14-.33,.34-.33s.34,.13,.34,.33c0,.21-.14,.34-.34,.34s-.34-.13-.34-.34Zm.08,.96h.5v3.02h-.5v-3.02Z"/><path class="cls-2" d="M295.65,82.83l.25-.33c.26,.21,.53,.36,.89,.36,.4,0,.59-.21,.59-.47,0-.31-.36-.44-.69-.57-.42-.16-.88-.36-.88-.87,0-.48,.39-.86,1.04-.86,.37,0,.7,.16,.93,.34l-.24,.33c-.21-.16-.42-.27-.68-.27-.38,0-.56,.2-.56,.43,0,.29,.31,.39,.65,.52,.44,.17,.92,.34,.92,.92,0,.49-.39,.89-1.1,.89-.43,0-.84-.18-1.13-.42Z"/><path class="cls-2" d="M298.68,82.24v-1.67h-.45v-.38l.47-.03,.06-.85h.42v.85h.82v.41h-.82v1.68c0,.37,.12,.58,.47,.58,.11,0,.25-.04,.34-.08l.1,.38c-.17,.06-.37,.11-.55,.11-.64,0-.86-.41-.86-1.01Z"/><path class="cls-2" d="M300.5,82.39c0-.66,.57-.98,1.85-1.13,0-.39-.13-.76-.62-.76-.35,0-.67,.16-.91,.32l-.2-.35c.28-.18,.71-.39,1.19-.39,.73,0,1.04,.49,1.04,1.24v1.86h-.42l-.04-.36h-.02c-.29,.24-.63,.43-1,.43-.51,0-.88-.31-.88-.86Zm1.85,.05v-.84c-1.02,.12-1.36,.37-1.36,.76,0,.34,.23,.48,.53,.48s.53-.14,.83-.4Z"/><path class="cls-2" d="M303.83,80.16h.42l.04,.43h.02c.29-.28,.6-.51,1.01-.51,.63,0,.92,.41,.92,1.18v1.91h-.5v-1.84c0-.57-.17-.81-.57-.81-.31,0-.52,.16-.83,.46v2.19h-.51v-3.02Z"/><path class="cls-2" d="M307,81.67c0-1.01,.68-1.59,1.46-1.59,.39,0,.67,.17,.88,.36l-.26,.33c-.18-.16-.36-.27-.6-.27-.55,0-.95,.47-.95,1.17s.38,1.16,.93,1.16c.28,0,.52-.13,.71-.3l.22,.34c-.27,.24-.62,.38-.98,.38-.8,0-1.42-.58-1.42-1.58Z"/><path class="cls-2" d="M309.83,81.67c0-.98,.66-1.59,1.36-1.59,.77,0,1.2,.56,1.2,1.42,0,.11-.01,.22-.02,.29h-2.03c.03,.64,.43,1.06,1,1.06,.29,0,.53-.09,.76-.24l.18,.33c-.27,.17-.59,.31-1,.31-.8,0-1.44-.58-1.44-1.58Zm2.12-.25c0-.61-.28-.93-.75-.93-.43,0-.81,.34-.87,.93h1.62Z"/><path class="cls-2" d="M314.04,82.83l.25-.33c.26,.21,.53,.36,.89,.36,.4,0,.59-.21,.59-.47,0-.31-.36-.44-.69-.57-.42-.16-.88-.36-.88-.87,0-.48,.39-.86,1.04-.86,.37,0,.7,.16,.93,.34l-.24,.33c-.21-.16-.42-.27-.68-.27-.38,0-.56,.2-.56,.43,0,.29,.31,.39,.65,.52,.44,.17,.92,.34,.92,.92,0,.49-.39,.89-1.1,.89-.43,0-.84-.18-1.13-.42Z"/><path class="cls-2" d="M316.76,81.67c0-.98,.66-1.59,1.36-1.59,.77,0,1.2,.56,1.2,1.42,0,.11-.01,.22-.02,.29h-2.03c.03,.64,.43,1.06,1,1.06,.29,0,.53-.09,.76-.24l.18,.33c-.27,.17-.59,.31-1,.31-.8,0-1.44-.58-1.44-1.58Zm2.12-.25c0-.61-.28-.93-.75-.93-.43,0-.81,.34-.87,.93h1.62Z"/><path class="cls-2" d="M320.07,80.16h.42l.04,.43h.02c.29-.28,.6-.51,1.01-.51,.63,0,.92,.41,.92,1.18v1.91h-.5v-1.84c0-.57-.17-.81-.57-.81-.31,0-.52,.16-.83,.46v2.19h-.51v-3.02Z"/><path class="cls-2" d="M323.12,82.83l.25-.33c.26,.21,.53,.36,.89,.36,.4,0,.59-.21,.59-.47,0-.31-.36-.44-.69-.57-.42-.16-.88-.36-.88-.87,0-.48,.39-.86,1.04-.86,.37,0,.7,.16,.93,.34l-.24,.33c-.21-.16-.42-.27-.68-.27-.38,0-.56,.2-.56,.43,0,.29,.31,.39,.65,.52,.44,.17,.92,.34,.92,.92,0,.49-.39,.89-1.1,.89-.43,0-.84-.18-1.13-.42Z"/><path class="cls-2" d="M325.84,81.67c0-1.01,.66-1.59,1.4-1.59s1.4,.58,1.4,1.59-.66,1.58-1.4,1.58-1.4-.58-1.4-1.58Zm2.28,0c0-.69-.36-1.17-.88-1.17s-.87,.47-.87,1.17,.35,1.16,.87,1.16,.88-.46,.88-1.16Z"/><path class="cls-2" d="M329.44,80.16h.42l.04,.55h.02c.21-.38,.52-.63,.86-.63,.13,0,.23,.02,.32,.07l-.09,.44c-.1-.04-.17-.05-.29-.05-.25,0-.56,.18-.76,.69v1.94h-.51v-3.02Z"/></g></g></svg>