<?xml version="1.0" encoding="UTF-8"?><svg id="_イヤー_2" xmlns="http://www.w3.org/2000/svg" viewBox="0 0 656 656.01"><defs><style>.cls-1{fill:#231815;}</style></defs><g id="_年の"><path id="_-4" class="cls-1" d="M589.6,562.02L336.18,122.97c-3.27-6.08-11.22-7.95-17.3-4.21-79.49,50.97-147.28,118.29-198.25,197.78-3.74,6.08-1.87,13.56,4.21,17.3l439.51,253.89c16.36,8.88,34.6-9.35,25.25-25.72Z"/><path id="_-3" class="cls-1" d="M546.12,622.33L107.07,364.24c-6.08-3.27-13.56-1.4-16.83,4.68-43.48,83.69-68.27,176.27-72.94,270.25-.47,7.01,5.14,12.62,12.16,12.62l507.31,4.21c19.17,.47,25.72-24.31,9.35-33.66Z"/><path id="_-2" class="cls-1" d="M656,537.24l-4.68-506.84c0-7.01-5.61-12.62-12.62-12.16-93.98,4.21-186.56,28.99-270.25,72.01-6.08,3.27-8.42,10.75-4.68,16.83l258.1,439.51c8.88,16.36,34.13,9.82,34.13-9.35Z"/><path id="_-1" class="cls-1" d="M556.87,0H12.16C5.14,0,0,5.61,0,12.16V554.54C47.69,270.25,272.59,46.29,556.87,0Z"/></g></svg>