<svg width="951" height="147" viewBox="0 0 951 147" fill="none" xmlns="http://www.w3.org/2000/svg">
<path d="M950.95 69.42C950.1 67.88 948.79 66.26 947.25 65.26C945.48 64.11 943.71 63.72 941.63 63.72C938.94 63.72 936.01 64.26 933.62 66.65C931.93 68.34 930.69 70.81 930.69 73.81C930.69 76.27 931.54 78.12 932.92 79.43C933.92 80.43 935.61 81.35 936.62 81.89L938.7 82.97C939.78 83.51 940.93 83.97 941.78 84.82C942.55 85.59 942.86 86.51 942.86 87.51C942.86 88.74 942.48 89.67 941.63 90.36C940.94 90.98 939.94 91.36 938.63 91.36C937.32 91.36 936.24 90.9 935.47 90.21C934.7 89.52 934.01 88.29 933.7 87.05L927.16 89.98C928.31 93.75 930.86 95.68 931.16 95.91C933.55 97.68 936.47 97.99 938.4 97.99C942.48 97.99 945.41 96.83 947.49 94.91C949.11 93.37 950.72 90.91 950.72 87.06C950.72 83.52 949.26 81.44 948.26 80.36C947.95 80.05 946.8 78.9 944.18 77.59L942.02 76.51C940.02 75.51 939.4 75.28 938.86 74.82C938.24 74.36 937.94 73.74 937.94 72.97C937.94 72.2 938.33 71.58 938.63 71.28C939.4 70.51 940.48 70.36 941.25 70.36C942.1 70.36 942.79 70.51 943.56 71.13C944.18 71.59 944.72 72.21 945.1 73.13L950.95 69.43V69.42ZM918 71.5L918.85 64.57H913.08L914.54 52.71H906.99L905.53 64.57H902.37L901.52 71.5H904.68L901.52 96.99H909.07L912.23 71.5H918ZM855.32 96.99H862.87L864.8 81.36C865.26 77.51 865.95 74.2 867.96 72.27C868.58 71.65 870.12 70.5 872.81 70.5C874.2 70.5 875.66 70.88 876.66 71.81C877.89 72.97 878.12 74.66 878.12 75.97C878.12 76.28 878.12 77.43 877.74 80.28L875.66 96.99H883.21L885.21 81.05C885.75 76.82 885.9 75.43 885.9 74.2C885.9 70.81 884.67 68.19 882.97 66.5C881.58 65.11 879.2 63.73 875.27 63.73C873.35 63.73 871.65 64.04 869.73 64.96C868.5 65.58 867.5 66.27 866.5 67.5L866.88 64.57H859.33L855.33 96.99H855.32ZM818.36 76.43C818.98 74.89 820.05 73.2 821.36 72.12C822.98 70.81 824.9 70.2 826.83 70.2C828.76 70.2 830.45 70.82 831.53 71.97C832.45 72.97 833.22 74.82 833.45 76.44H818.36V76.43ZM833.45 86.05C832.68 87.44 831.37 88.9 830.06 89.75C828.6 90.67 826.67 91.21 824.9 91.21C822.36 91.21 820.59 90.21 819.59 89.13C818.05 87.51 817.2 84.9 817.2 82.59H840.38C840.69 81.13 840.76 79.82 840.76 78.82C840.76 74.12 839.22 70.04 836.76 67.5C833.76 64.34 829.98 63.73 826.98 63.73C822.13 63.73 818.28 65.42 815.12 68.5C811.58 71.96 809.5 76.82 809.5 82.36C809.5 87.44 811.35 91.37 813.89 93.91C816.82 96.91 820.28 97.99 824.28 97.99C828.59 97.99 831.52 96.76 833.37 95.68C835.53 94.37 837.76 92.29 839.38 89.6L833.45 86.06V86.05ZM746.6 96.98H754.15L756.23 80.27C756.61 76.96 757.15 73.96 759 72.11C760 71.11 761.31 70.49 763 70.49C764.46 70.49 765.54 71.03 766.23 71.72C767.46 72.95 767.54 74.88 767.54 75.88C767.54 76.65 767.46 77.65 767.15 79.96L765.07 96.98H772.62L774.7 80.27C775.16 76.57 775.85 73.73 777.86 71.88C779.17 70.72 780.4 70.49 781.4 70.49C782.63 70.49 784.02 71.03 784.71 71.8C785.63 72.72 786.02 74.34 786.02 76.11C786.02 77.57 785.71 79.27 785.56 80.65L783.56 96.97H791.11L793.11 80.65C793.49 77.8 793.73 75.8 793.73 74.11C793.73 72.26 793.5 68.8 790.8 66.33C789.11 64.71 786.64 63.71 783.18 63.71C780.95 63.71 779.41 64.09 777.71 65.1C775.94 66.18 774.78 67.41 774.01 68.49C773.39 67.26 772.47 65.95 770.85 64.95C769.31 63.95 767.92 63.72 766.23 63.72C764.38 63.72 762.61 64.03 760.92 64.95C759.69 65.64 758.61 66.64 757.76 67.57L758.15 64.57H750.6L746.6 96.99V96.98ZM709.56 76.42C710.18 74.88 711.25 73.19 712.56 72.11C714.18 70.8 716.1 70.19 718.03 70.19C719.96 70.19 721.65 70.81 722.73 71.96C723.65 72.96 724.42 74.81 724.65 76.43H709.56V76.42ZM724.65 86.04C723.88 87.43 722.57 88.89 721.26 89.74C719.8 90.66 717.87 91.2 716.1 91.2C713.56 91.2 711.79 90.2 710.79 89.12C709.25 87.5 708.4 84.89 708.4 82.58H731.58C731.89 81.12 731.97 79.81 731.97 78.81C731.97 74.11 730.43 70.03 727.97 67.49C724.97 64.33 721.19 63.72 718.19 63.72C713.34 63.72 709.49 65.41 706.33 68.49C702.79 71.95 700.71 76.81 700.71 82.35C700.71 87.43 702.56 91.36 705.1 93.9C708.03 96.9 711.49 97.98 715.49 97.98C719.8 97.98 722.73 96.75 724.58 95.67C726.74 94.36 728.97 92.28 730.59 89.59L724.66 86.05L724.65 86.04ZM681.69 40.84L674.76 96.97H682.31L689.24 40.84H681.69ZM663.75 45.61H635.42L629.11 96.97H657.44L658.36 89.58H637.88L639.88 73.41H659.75L660.67 66.02H640.81L642.35 53.01H662.83L663.75 45.62V45.61ZM555.26 96.97H562.81L564.74 81.34C565.2 77.49 565.89 74.18 567.9 72.25C568.52 71.63 570.06 70.48 572.75 70.48C574.14 70.48 575.6 70.86 576.6 71.79C577.83 72.95 578.06 74.64 578.06 75.95C578.06 76.26 578.06 77.41 577.68 80.26L575.6 96.97H583.15L585.15 81.03C585.69 76.8 585.84 75.41 585.84 74.18C585.84 70.79 584.61 68.17 582.91 66.48C581.52 65.09 579.14 63.71 575.21 63.71C573.29 63.71 571.59 64.02 569.67 64.94C568.44 65.56 567.44 66.25 566.44 67.48L566.82 64.55H559.27L555.27 96.97H555.26ZM523 91.2C519 91.2 516.84 89.2 516.07 88.35C514.53 86.58 513.68 84.11 513.68 81.65C513.68 78.34 514.99 75.26 517.22 73.18C518.68 71.79 521.07 70.49 524.53 70.49C526.99 70.49 529.07 71.26 530.69 72.95C532.85 75.18 533.23 77.95 533.23 79.73C533.23 83.19 532 86.12 530.15 88.12C528.07 90.35 525.61 91.2 522.99 91.2H523ZM525 63.71C519.46 63.71 515.14 65.33 511.6 68.71C508.21 71.94 505.98 76.64 505.98 82.26C505.98 87.5 508.06 91.11 510.45 93.58C513.99 97.2 517.84 97.97 522 97.97C527.24 97.97 531.39 96.74 535.32 92.97C540.09 88.35 540.94 82.96 540.94 79.26C540.94 73.87 538.63 70.17 536.55 68.02C532.85 64.32 528.39 63.71 525 63.71ZM484.42 51.93C484.42 53.16 484.96 54.24 485.65 54.86C486.27 55.48 487.19 56.02 488.65 56.02C490.27 56.02 491.81 55.33 492.73 54.33C493.73 53.25 494.27 51.63 494.27 50.4C494.27 49.17 493.73 48.17 493.04 47.47C492.35 46.78 491.27 46.32 489.96 46.32C488.34 46.32 486.96 47.01 486.03 47.94C484.95 49.02 484.41 50.48 484.41 51.94L484.42 51.93ZM483.96 64.56L479.96 96.98H487.51L491.51 64.56H483.96ZM469.48 71.49L470.33 64.56H464.56L466.02 52.7H458.47L457.01 64.56H453.85L453 71.49H456.16L453 96.98H460.55L463.71 71.49H469.48ZM439.91 66.49C437.52 64.95 434.44 63.72 429.82 63.72C424.97 63.72 420.43 64.95 416.58 68.72C414.12 71.18 411.19 75.5 411.19 82.04C411.19 88.12 413.65 91.82 415.73 93.82C418.81 96.9 422.51 97.98 426.74 97.98C431.74 97.98 434.36 97.06 436.36 95.75L437.36 87.28C435.82 88.97 434.2 89.74 433.66 90.05C431.35 91.13 429.19 91.21 428.42 91.21C425.88 91.21 423.34 90.36 421.72 88.82C420.18 87.36 418.95 84.82 418.95 81.74C418.95 78.66 420.03 75.81 422.03 73.73C423.8 71.88 426.65 70.5 430.27 70.5C432.04 70.5 433.43 70.88 435.04 71.73C436.81 72.65 438.04 73.81 438.89 74.66L439.89 66.5L439.91 66.49ZM379.54 70.49C382.31 70.49 384.16 71.49 385.31 72.65C386.93 74.27 387.85 76.81 387.85 79.5C387.85 82.66 386.7 86.12 384.54 88.36C383.15 89.75 380.84 91.21 377.46 91.21C375.15 91.21 373.38 90.36 371.99 88.9C370.53 87.36 369.45 84.97 369.45 82.12C369.45 78.5 370.99 75.04 373.07 73.04C374.38 71.81 376.46 70.5 379.54 70.5V70.49ZM388.78 68.33C387.7 66.87 386.39 65.79 385.08 65.1C383.23 64.1 381.31 63.71 379.15 63.71C374.61 63.71 370.6 64.94 367.29 68.25C363.36 72.18 361.67 77.8 361.67 82.73C361.67 87.66 363.6 91.97 366.14 94.43C367.76 95.97 370.61 97.97 375.38 97.97C377.46 97.97 379.69 97.51 381.31 96.81C382.93 96.12 384.54 94.73 385.62 93.58L385.24 96.97H392.79L396.79 64.55H389.24L388.78 68.32V68.33ZM328.11 96.97H335.66L337.74 80.18C337.97 78.56 338.59 74.87 340.51 72.87C341.59 71.79 343.2 70.95 345.51 70.95C347.05 70.95 348.36 71.33 349.51 72.1L353.21 65.25C351.05 63.94 349.21 63.71 347.67 63.71C346.13 63.71 344.44 63.86 342.74 64.71C340.89 65.63 339.66 67.02 339.28 67.48L339.67 64.55H332.12L328.12 96.97H328.11ZM291.07 76.41C291.69 74.87 292.76 73.18 294.07 72.1C295.69 70.79 297.61 70.18 299.54 70.18C301.47 70.18 303.16 70.8 304.24 71.95C305.16 72.95 305.93 74.8 306.16 76.42H291.07V76.41ZM306.16 86.03C305.39 87.42 304.08 88.88 302.77 89.73C301.31 90.65 299.38 91.19 297.61 91.19C295.07 91.19 293.3 90.19 292.3 89.11C290.76 87.49 289.91 84.88 289.91 82.57H313.09C313.4 81.11 313.48 79.8 313.48 78.8C313.48 74.1 311.94 70.02 309.48 67.48C306.48 64.32 302.7 63.71 299.7 63.71C294.85 63.71 291 65.4 287.84 68.48C284.3 71.94 282.22 76.8 282.22 82.34C282.22 87.42 284.07 91.35 286.61 93.89C289.54 96.89 293 97.97 297 97.97C301.31 97.97 304.24 96.74 306.09 95.66C308.25 94.35 310.48 92.27 312.1 89.58L306.17 86.04L306.16 86.03ZM271.43 71.48L272.28 64.55H266.51L267.97 52.69H260.42L258.96 64.55H255.8L254.95 71.48H258.11L254.95 96.97H262.5L265.66 71.48H271.43ZM208.75 96.97H216.3L218.23 81.34C218.69 77.49 219.38 74.18 221.39 72.25C222.01 71.63 223.55 70.48 226.24 70.48C227.63 70.48 229.09 70.86 230.09 71.79C231.32 72.95 231.55 74.64 231.55 75.95C231.55 76.26 231.55 77.41 231.17 80.26L229.09 96.97H236.64L238.64 81.03C239.18 76.8 239.33 75.41 239.33 74.18C239.33 70.79 238.1 68.17 236.4 66.48C235.01 65.09 232.63 63.71 228.7 63.71C226.78 63.71 225.08 64.02 223.16 64.94C221.93 65.56 220.93 66.25 219.93 67.48L220.31 64.55H212.76L208.76 96.97H208.75ZM187.81 45.61L181.5 96.97H189.35L195.66 45.61H187.81Z" fill="#231815"/>
<path d="M0.18 5.97C0.18 2.66 2.87 -0.0200032 6.17 -3.22441e-06C47.4 0.209997 84.55 0.329997 127.66 0.0599968C44.08 3.16 5.19 69.69 0 127.62C0.12 90.17 0.22 47.85 0.18 5.97Z" fill="black"/>
<path d="M18.42 83.5C12.03 99.67 6.82002 121.26 4.52002 141.04C4.21002 143.75 6.31002 146.12 9.04002 146.14C46.67 146.35 84.31 146.29 117.15 146.24C121.7 146.24 123.44 140.3 119.62 137.83C80.77 112.75 58.73 102.62 25.14 81.32C22.71 79.78 19.49 80.84 18.43 83.51L18.42 83.5Z" fill="black"/>
<path d="M67.16 25.14C51.55 35.27 35.95 50.43 26.22 68.23C24.86 70.72 25.74 73.83 28.2 75.24C65.05 96.43 86.29 108.19 123.09 128.49C127.72 131.04 132.77 125.88 130.11 121.31C110.21 87.12 96.52 64.36 74.49 26.88C72.99 24.32 69.65 23.53 67.17 25.14H67.16Z" fill="black"/>
<path d="M141.17 3.59C120.42 4.84 97.8999 10.2 82.3299 17.02C79.3999 18.3 78.3099 21.91 80.0399 24.6C102.31 59.27 115.53 79.98 137.54 113.43C140.38 117.75 147.1 115.73 147.09 110.56C146.99 69.53 146.73 45.76 146.7 8.78C146.7 5.78 144.17 3.41 141.17 3.59Z" fill="black"/>
</svg>
