<svg width="770" height="58" viewBox="0 0 770 58" fill="none" xmlns="http://www.w3.org/2000/svg">
<path d="M769.95 29.42C769.1 27.88 767.79 26.26 766.25 25.26C764.48 24.11 762.71 23.72 760.63 23.72C757.94 23.72 755.01 24.26 752.62 26.65C750.93 28.34 749.69 30.81 749.69 33.81C749.69 36.27 750.54 38.12 751.92 39.43C752.92 40.43 754.61 41.35 755.62 41.89L757.7 42.97C758.78 43.51 759.93 43.97 760.78 44.82C761.55 45.59 761.86 46.51 761.86 47.51C761.86 48.74 761.48 49.67 760.63 50.36C759.94 50.98 758.94 51.36 757.63 51.36C756.32 51.36 755.24 50.9 754.47 50.21C753.7 49.52 753.01 48.29 752.7 47.05L746.16 49.98C747.31 53.75 749.86 55.68 750.16 55.91C752.55 57.68 755.47 57.99 757.4 57.99C761.48 57.99 764.41 56.83 766.49 54.91C768.11 53.37 769.72 50.91 769.72 47.06C769.72 43.52 768.26 41.44 767.26 40.36C766.95 40.05 765.8 38.9 763.18 37.59L761.02 36.51C759.02 35.51 758.4 35.28 757.86 34.82C757.24 34.36 756.94 33.74 756.94 32.97C756.94 32.2 757.33 31.58 757.63 31.28C758.4 30.51 759.48 30.36 760.25 30.36C761.1 30.36 761.79 30.51 762.56 31.13C763.18 31.59 763.72 32.21 764.1 33.13L769.95 29.43V29.42ZM737 31.5L737.85 24.57H732.08L733.54 12.71H725.99L724.53 24.57H721.37L720.52 31.5H723.68L720.52 56.99H728.07L731.23 31.5H737ZM674.32 56.99H681.87L683.8 41.36C684.26 37.51 684.95 34.2 686.96 32.27C687.58 31.65 689.12 30.5 691.81 30.5C693.2 30.5 694.66 30.88 695.66 31.81C696.89 32.97 697.12 34.66 697.12 35.97C697.12 36.28 697.12 37.43 696.74 40.28L694.66 56.99H702.21L704.21 41.05C704.75 36.82 704.9 35.43 704.9 34.2C704.9 30.81 703.67 28.19 701.97 26.5C700.58 25.11 698.2 23.73 694.27 23.73C692.35 23.73 690.65 24.04 688.73 24.96C687.5 25.58 686.5 26.27 685.5 27.5L685.88 24.57H678.33L674.33 56.99H674.32ZM637.36 36.43C637.98 34.89 639.05 33.2 640.36 32.12C641.98 30.81 643.9 30.2 645.83 30.2C647.76 30.2 649.45 30.82 650.53 31.97C651.45 32.97 652.22 34.82 652.45 36.44H637.36V36.43ZM652.45 46.05C651.68 47.44 650.37 48.9 649.06 49.75C647.6 50.67 645.67 51.21 643.9 51.21C641.36 51.21 639.59 50.21 638.59 49.13C637.05 47.51 636.2 44.9 636.2 42.59H659.38C659.69 41.13 659.76 39.82 659.76 38.82C659.76 34.12 658.22 30.04 655.76 27.5C652.76 24.34 648.98 23.73 645.98 23.73C641.13 23.73 637.28 25.42 634.12 28.5C630.58 31.96 628.5 36.82 628.5 42.36C628.5 47.44 630.35 51.37 632.89 53.91C635.82 56.91 639.28 57.99 643.28 57.99C647.59 57.99 650.52 56.76 652.37 55.68C654.53 54.37 656.76 52.29 658.38 49.6L652.45 46.06V46.05ZM565.6 56.98H573.15L575.23 40.27C575.61 36.96 576.15 33.96 578 32.11C579 31.11 580.31 30.49 582 30.49C583.46 30.49 584.54 31.03 585.23 31.72C586.46 32.95 586.54 34.88 586.54 35.88C586.54 36.65 586.46 37.65 586.15 39.96L584.07 56.98H591.62L593.7 40.27C594.16 36.57 594.85 33.73 596.86 31.88C598.17 30.72 599.4 30.49 600.4 30.49C601.63 30.49 603.02 31.03 603.71 31.8C604.63 32.72 605.02 34.34 605.02 36.11C605.02 37.57 604.71 39.27 604.56 40.65L602.56 56.97H610.11L612.11 40.65C612.49 37.8 612.73 35.8 612.73 34.11C612.73 32.26 612.5 28.8 609.8 26.33C608.11 24.71 605.64 23.71 602.18 23.71C599.95 23.71 598.41 24.09 596.71 25.1C594.94 26.18 593.78 27.41 593.01 28.49C592.39 27.26 591.47 25.95 589.85 24.95C588.31 23.95 586.92 23.72 585.23 23.72C583.38 23.72 581.61 24.03 579.92 24.95C578.69 25.64 577.61 26.64 576.76 27.57L577.15 24.57H569.6L565.6 56.99V56.98ZM528.56 36.42C529.18 34.88 530.25 33.19 531.56 32.11C533.18 30.8 535.1 30.19 537.03 30.19C538.96 30.19 540.65 30.81 541.73 31.96C542.65 32.96 543.42 34.81 543.65 36.43H528.56V36.42ZM543.65 46.04C542.88 47.43 541.57 48.89 540.26 49.74C538.8 50.66 536.87 51.2 535.1 51.2C532.56 51.2 530.79 50.2 529.79 49.12C528.25 47.5 527.4 44.89 527.4 42.58H550.58C550.89 41.12 550.97 39.81 550.97 38.81C550.97 34.11 549.43 30.03 546.97 27.49C543.97 24.33 540.19 23.72 537.19 23.72C532.34 23.72 528.49 25.41 525.33 28.49C521.79 31.95 519.71 36.81 519.71 42.35C519.71 47.43 521.56 51.36 524.1 53.9C527.03 56.9 530.49 57.98 534.49 57.98C538.8 57.98 541.73 56.75 543.58 55.67C545.74 54.36 547.97 52.28 549.59 49.59L543.66 46.05L543.65 46.04ZM500.69 0.839996L493.76 56.97H501.31L508.24 0.839996H500.69V0.839996ZM482.75 5.61H454.42L448.11 56.97H476.44L477.36 49.58H456.88L458.88 33.41H478.75L479.67 26.02H459.81L461.35 13.01H481.83L482.75 5.62V5.61ZM374.26 56.97H381.81L383.74 41.34C384.2 37.49 384.89 34.18 386.9 32.25C387.52 31.63 389.06 30.48 391.75 30.48C393.14 30.48 394.6 30.86 395.6 31.79C396.83 32.95 397.06 34.64 397.06 35.95C397.06 36.26 397.06 37.41 396.68 40.26L394.6 56.97H402.15L404.15 41.03C404.69 36.8 404.84 35.41 404.84 34.18C404.84 30.79 403.61 28.17 401.91 26.48C400.52 25.09 398.14 23.71 394.21 23.71C392.29 23.71 390.59 24.02 388.67 24.94C387.44 25.56 386.44 26.25 385.44 27.48L385.82 24.55H378.27L374.27 56.97H374.26ZM342 51.2C338 51.2 335.84 49.2 335.07 48.35C333.53 46.58 332.68 44.11 332.68 41.65C332.68 38.34 333.99 35.26 336.22 33.18C337.68 31.79 340.07 30.49 343.53 30.49C345.99 30.49 348.07 31.26 349.69 32.95C351.85 35.18 352.23 37.95 352.23 39.73C352.23 43.19 351 46.12 349.15 48.12C347.07 50.35 344.61 51.2 341.99 51.2H342ZM344 23.71C338.46 23.71 334.14 25.33 330.6 28.71C327.21 31.94 324.98 36.64 324.98 42.26C324.98 47.5 327.06 51.11 329.45 53.58C332.99 57.2 336.84 57.97 341 57.97C346.24 57.97 350.39 56.74 354.32 52.97C359.09 48.35 359.94 42.96 359.94 39.26C359.94 33.87 357.63 30.17 355.55 28.02C351.85 24.32 347.39 23.71 344 23.71V23.71ZM303.42 11.93C303.42 13.16 303.96 14.24 304.65 14.86C305.27 15.48 306.19 16.02 307.65 16.02C309.27 16.02 310.81 15.33 311.73 14.33C312.73 13.25 313.27 11.63 313.27 10.4C313.27 9.17 312.73 8.17 312.04 7.47C311.35 6.78 310.27 6.32 308.96 6.32C307.34 6.32 305.96 7.00999 305.03 7.93999C303.95 9.01999 303.41 10.48 303.41 11.94L303.42 11.93ZM302.96 24.56L298.96 56.98H306.51L310.51 24.56H302.96ZM288.48 31.49L289.33 24.56H283.56L285.02 12.7H277.47L276.01 24.56H272.85L272 31.49H275.16L272 56.98H279.55L282.71 31.49H288.48ZM258.91 26.49C256.52 24.95 253.44 23.72 248.82 23.72C243.97 23.72 239.43 24.95 235.58 28.72C233.12 31.18 230.19 35.5 230.19 42.04C230.19 48.12 232.65 51.82 234.73 53.82C237.81 56.9 241.51 57.98 245.74 57.98C250.74 57.98 253.36 57.06 255.36 55.75L256.36 47.28C254.82 48.97 253.2 49.74 252.66 50.05C250.35 51.13 248.19 51.21 247.42 51.21C244.88 51.21 242.34 50.36 240.72 48.82C239.18 47.36 237.95 44.82 237.95 41.74C237.95 38.66 239.03 35.81 241.03 33.73C242.8 31.88 245.65 30.5 249.27 30.5C251.04 30.5 252.43 30.88 254.04 31.73C255.81 32.65 257.04 33.81 257.89 34.66L258.89 26.5L258.91 26.49ZM198.54 30.49C201.31 30.49 203.16 31.49 204.31 32.65C205.93 34.27 206.85 36.81 206.85 39.5C206.85 42.66 205.7 46.12 203.54 48.36C202.15 49.75 199.84 51.21 196.46 51.21C194.15 51.21 192.38 50.36 190.99 48.9C189.53 47.36 188.45 44.97 188.45 42.12C188.45 38.5 189.99 35.04 192.07 33.04C193.38 31.81 195.46 30.5 198.54 30.5V30.49ZM207.78 28.33C206.7 26.87 205.39 25.79 204.08 25.1C202.23 24.1 200.31 23.71 198.15 23.71C193.61 23.71 189.6 24.94 186.29 28.25C182.36 32.18 180.67 37.8 180.67 42.73C180.67 47.66 182.6 51.97 185.14 54.43C186.76 55.97 189.61 57.97 194.38 57.97C196.46 57.97 198.69 57.51 200.31 56.81C201.93 56.12 203.54 54.73 204.62 53.58L204.24 56.97H211.79L215.79 24.55H208.24L207.78 28.32V28.33ZM147.11 56.97H154.66L156.74 40.18C156.97 38.56 157.59 34.87 159.51 32.87C160.59 31.79 162.2 30.95 164.51 30.95C166.05 30.95 167.36 31.33 168.51 32.1L172.21 25.25C170.05 23.94 168.21 23.71 166.67 23.71C165.13 23.71 163.44 23.86 161.74 24.71C159.89 25.63 158.66 27.02 158.28 27.48L158.67 24.55H151.12L147.12 56.97H147.11ZM110.07 36.41C110.69 34.87 111.76 33.18 113.07 32.1C114.69 30.79 116.61 30.18 118.54 30.18C120.47 30.18 122.16 30.8 123.24 31.95C124.16 32.95 124.93 34.8 125.16 36.42H110.07V36.41ZM125.16 46.03C124.39 47.42 123.08 48.88 121.77 49.73C120.31 50.65 118.38 51.19 116.61 51.19C114.07 51.19 112.3 50.19 111.3 49.11C109.76 47.49 108.91 44.88 108.91 42.57H132.09C132.4 41.11 132.48 39.8 132.48 38.8C132.48 34.1 130.94 30.02 128.48 27.48C125.48 24.32 121.7 23.71 118.7 23.71C113.85 23.71 110 25.4 106.84 28.48C103.3 31.94 101.22 36.8 101.22 42.34C101.22 47.42 103.07 51.35 105.61 53.89C108.54 56.89 112 57.97 116 57.97C120.31 57.97 123.24 56.74 125.09 55.66C127.25 54.35 129.48 52.27 131.1 49.58L125.17 46.04L125.16 46.03ZM90.43 31.48L91.28 24.55H85.51L86.97 12.69H79.42L77.96 24.55H74.8L73.95 31.48H77.11L73.95 56.97H81.5L84.66 31.48H90.43V31.48ZM27.75 56.97H35.3L37.23 41.34C37.69 37.49 38.38 34.18 40.39 32.25C41.01 31.63 42.55 30.48 45.24 30.48C46.63 30.48 48.09 30.86 49.09 31.79C50.32 32.95 50.55 34.64 50.55 35.95C50.55 36.26 50.55 37.41 50.17 40.26L48.09 56.97H55.64L57.64 41.03C58.18 36.8 58.33 35.41 58.33 34.18C58.33 30.79 57.1 28.17 55.4 26.48C54.01 25.09 51.63 23.71 47.7 23.71C45.78 23.71 44.08 24.02 42.16 24.94C40.93 25.56 39.93 26.25 38.93 27.48L39.31 24.55H31.76L27.76 56.97H27.75ZM6.81 5.61L0.5 56.97H8.35001L14.66 5.61H6.81Z" fill="#231815"/>
</svg>
